<svg width="33" height="32" viewBox="0 0 33 32" fill="none" xmlns="http://www.w3.org/2000/svg">
<path d="M9.08422 3.38554C7.50463 3.70257 6.13083 4.9262 5.69144 6.40567L5.55239 6.86175H4.91277C3.87269 6.86175 3.23307 7.09535 2.67131 7.69048C1.63679 8.77505 1.67017 10.4214 2.73806 11.4392C3.3165 11.9898 3.90606 12.2012 4.86827 12.2012H5.46896V13.0911V13.981H4.86827C3.87825 13.981 3.22751 14.2257 2.67131 14.8097C1.65904 15.8665 1.65904 17.435 2.67131 18.4917C3.22751 19.0757 3.87825 19.3205 4.86827 19.3205H5.46896V20.2104V21.1003H4.86827C3.90606 21.1003 3.3165 21.3116 2.73806 21.8623C1.67017 22.8801 1.63679 24.5264 2.67131 25.611C3.23307 26.2006 3.87269 26.4397 4.91277 26.4397H5.55239L5.70256 26.9292C6.18089 28.4698 7.6103 29.6823 9.25107 29.9382C9.55698 29.9882 11.6705 29.9994 17.2881 29.9882C24.2127 29.9716 24.9357 29.9604 25.2138 29.877C26.4374 29.5099 27.255 28.9204 27.8891 27.9526C28.1616 27.5354 28.3229 27.1683 28.4842 26.5788C28.5732 26.2729 28.5788 25.4386 28.5788 16.6507C28.5788 7.86289 28.5732 7.02861 28.4842 6.7227C28.3229 6.13314 28.1616 5.76605 27.8891 5.34891C27.255 4.38113 26.4374 3.79156 25.2138 3.42448C24.9357 3.34105 24.2182 3.32993 17.1768 3.3188C11.0031 3.31324 9.37344 3.32436 9.08422 3.38554ZM24.7967 5.16536C25.7867 5.42677 26.582 6.26106 26.7711 7.24552C26.849 7.65154 26.849 25.6388 26.7711 26.056C26.582 27.0738 25.6866 27.9693 24.6632 28.1639C24.4685 28.1973 21.771 28.2196 16.9877 28.2196C8.92292 28.2196 9.30113 28.2362 8.67263 27.897C8.28886 27.6912 7.74935 27.1461 7.56581 26.7735L7.41008 26.4675L8.06638 26.4342C9.01191 26.3786 9.52917 26.1616 10.0742 25.5832C10.4302 25.2105 10.6861 24.6822 10.7639 24.1705C10.8473 23.6532 10.7917 23.4029 10.5359 23.1526C10.2077 22.8245 9.70715 22.7911 9.36231 23.0803C9.13984 23.275 9.08422 23.3862 9.0286 23.7811C8.93404 24.4374 8.61701 24.6599 7.78272 24.6599H7.24878V21.9902V19.3205H7.79941C8.51134 19.3205 8.85618 19.2537 9.34006 19.0146C10.0798 18.653 10.636 17.8855 10.7639 17.0512C10.8473 16.5339 10.7917 16.2837 10.5359 16.0334C10.2077 15.7052 9.70715 15.6718 9.36231 15.9611C9.13984 16.1557 9.08422 16.267 9.0286 16.6619C8.93404 17.3182 8.61701 17.5407 7.78272 17.5407H7.24878V14.8709V12.2012H7.79941C8.09975 12.2012 8.47797 12.1734 8.64482 12.1456C9.71271 11.9398 10.5971 11.0221 10.7639 9.94306C10.8473 9.41467 10.7917 9.16995 10.5359 8.9141C10.2077 8.58595 9.70715 8.55257 9.36231 8.84179C9.13984 9.03646 9.08422 9.1477 9.0286 9.5426C8.93404 10.1989 8.61701 10.4214 7.78272 10.4214H7.24878V8.93078C7.24878 7.79059 7.26547 7.36789 7.33221 7.12316C7.5825 6.17207 8.31667 5.42121 9.25664 5.17092C9.72384 5.043 24.3183 5.043 24.7967 5.16536ZM5.46896 9.53147V10.4214H4.94058C4.33433 10.4214 4.11741 10.3546 3.89494 10.0932C3.62796 9.7762 3.62796 9.28675 3.89494 8.96972C4.11741 8.70831 4.31208 8.64713 4.92946 8.64157H5.46896V9.53147ZM5.46896 16.6507V17.5407H4.94058C4.33433 17.5407 4.11741 17.4739 3.89494 17.2125C3.62796 16.8955 3.62796 16.406 3.89494 16.089C4.11741 15.8276 4.31208 15.7664 4.92946 15.7608H5.46896V16.6507ZM5.46896 23.77V24.6599H4.93502C4.32321 24.6599 4.09517 24.5821 3.88381 24.2984C3.62796 23.9647 3.63353 23.5197 3.89494 23.2083C4.11741 22.9468 4.31208 22.8857 4.92946 22.8801H5.46896V23.77Z" fill="#4C4747"/>
<path d="M16.954 9.39555C16.5098 9.47968 16.2239 9.58716 15.8061 9.82084C15.3091 10.0966 14.9132 10.4424 14.5877 10.877C13.5102 12.3305 13.4486 14.284 14.4338 15.8215C14.6229 16.1159 15.1683 16.6861 15.4146 16.845C15.5026 16.9011 15.5774 16.9665 15.5774 16.9852C15.5774 17.0039 15.4938 17.0459 15.397 17.0787C15.0628 17.1862 14.1083 17.7329 13.7301 18.0367C12.7229 18.8405 11.9972 19.9248 11.6805 21.0978C11.4078 22.1166 11.6673 22.8176 12.4722 23.2242C13.5542 23.7663 15.0672 24 17.5566 24C20.1735 24 21.7041 23.757 22.7597 23.1681C23.1204 22.9718 23.3711 22.6868 23.4986 22.3222C23.5734 22.1073 23.5866 21.9998 23.569 21.71C23.5118 20.9576 23.1204 19.9108 22.6278 19.2097C21.9944 18.3078 20.9432 17.4993 19.9008 17.1067C19.7733 17.0553 19.6677 17.0039 19.6677 16.9899C19.6677 16.9758 19.7953 16.8637 19.9492 16.7422C20.7761 16.0972 21.3391 15.0597 21.471 13.9288C21.5766 13.0502 21.3875 12.1248 20.9388 11.3163C20.7057 10.8957 20.0108 10.162 19.6238 9.91898C18.8013 9.41425 17.8381 9.22264 16.954 9.39555ZM18.1547 10.4704C19.6238 10.7695 20.6397 12.251 20.455 13.826C20.3143 15.027 19.5578 15.9851 18.4582 16.3636C18.1723 16.4664 18.0184 16.4898 17.6445 16.4898C17.0904 16.4898 16.7517 16.4057 16.2767 16.144C15.6301 15.7841 15.1199 15.1485 14.8912 14.4055C14.7857 14.0737 14.7681 13.9475 14.7681 13.4614C14.7681 12.9801 14.7857 12.8492 14.8868 12.5221C15.2739 11.2789 16.3514 10.4377 17.5874 10.405C17.7105 10.405 17.9656 10.4331 18.1547 10.4704ZM18.7617 17.8825C20.3627 18.2283 21.7041 19.3079 22.3331 20.752C22.5134 21.1679 22.6717 21.7801 22.6322 21.9157C22.5838 22.0839 22.4694 22.1867 22.1835 22.3269C21.3787 22.7195 19.7953 22.9251 17.6225 22.9251C15.375 22.9251 13.8752 22.7195 12.9736 22.2989C12.5646 22.1073 12.525 21.9764 12.6789 21.3829C12.868 20.6398 13.3518 19.8033 13.8928 19.2798C15.1947 18.0133 16.9892 17.4993 18.7617 17.8825Z" fill="#4C4747" stroke="#4C4747" stroke-width="0.3"/>
</svg>
