<svg width="16" height="16" viewBox="0 0 16 16" fill="none" xmlns="http://www.w3.org/2000/svg">
<g clip-path="url(#clip0_274_7927)">
<path d="M10.3333 9H8.87333C8.62005 9.22294 8.29138 9.34104 7.95413 9.33031C7.61688 9.31958 7.29638 9.18081 7.05779 8.94221C6.8192 8.70362 6.68043 8.38312 6.66969 8.04587C6.65896 7.70863 6.77707 7.37995 7 7.12667V4.66667C7 4.40145 7.10536 4.1471 7.29289 3.95956C7.48043 3.77202 7.73478 3.66667 8 3.66667C8.26522 3.66667 8.51957 3.77202 8.70711 3.95956C8.89464 4.1471 9 4.40145 9 4.66667V7H10.3333C10.5986 7 10.8529 7.10536 11.0404 7.29289C11.228 7.48043 11.3333 7.73478 11.3333 8C11.3333 8.26522 11.228 8.51957 11.0404 8.70711C10.8529 8.89464 10.5986 9 10.3333 9ZM8 0C7.73478 0 7.48043 0.105357 7.29289 0.292893C7.10536 0.48043 7 0.734784 7 1C7 1.26522 7.10536 1.51957 7.29289 1.70711C7.48043 1.89464 7.73478 2 8 2C9.59076 2.00176 11.1159 2.63447 12.2407 3.75931C13.3655 4.88414 13.9982 6.40924 14 8C14 8.26522 14.1054 8.51957 14.2929 8.70711C14.4804 8.89464 14.7348 9 15 9C15.2652 9 15.5196 8.89464 15.7071 8.70711C15.8946 8.51957 16 8.26522 16 8C15.9977 5.87897 15.1541 3.84547 13.6543 2.34568C12.1545 0.845885 10.121 0.00229405 8 0V0ZM2 8.33333C2 8.13555 1.94135 7.94221 1.83147 7.77776C1.72159 7.61331 1.56541 7.48514 1.38268 7.40945C1.19996 7.33377 0.998891 7.31396 0.80491 7.35255C0.610929 7.39113 0.432746 7.48637 0.292894 7.62623C0.153041 7.76608 0.0578004 7.94426 0.0192152 8.13824C-0.0193701 8.33222 0.000433286 8.53329 0.0761209 8.71602C0.151809 8.89874 0.279981 9.05492 0.44443 9.1648C0.608879 9.27468 0.802219 9.33333 1 9.33333C1.26522 9.33333 1.51957 9.22798 1.70711 9.04044C1.89464 8.8529 2 8.59855 2 8.33333ZM4.49333 1.26267C4.29555 1.26267 4.10221 1.32132 3.93776 1.4312C3.77331 1.54108 3.64514 1.69726 3.56945 1.87998C3.49377 2.06271 3.47396 2.26378 3.51255 2.45776C3.55113 2.65174 3.64637 2.82992 3.78623 2.96977C3.92608 3.10963 4.10426 3.20487 4.29824 3.24345C4.49222 3.28204 4.69329 3.26223 4.87602 3.18655C5.05874 3.11086 5.21492 2.98269 5.3248 2.81824C5.43468 2.65379 5.49333 2.46045 5.49333 2.26267C5.49333 1.99745 5.38798 1.7431 5.20044 1.55556C5.0129 1.36802 4.75855 1.26267 4.49333 1.26267ZM1.942 3.83333C1.74422 3.83333 1.55088 3.89198 1.38643 4.00186C1.22198 4.11175 1.09381 4.26792 1.01812 4.45065C0.942433 4.63338 0.92263 4.83444 0.961215 5.02842C0.9998 5.2224 1.09504 5.40059 1.23489 5.54044C1.37475 5.68029 1.55293 5.77553 1.74691 5.81412C1.94089 5.8527 2.14196 5.8329 2.32468 5.75721C2.50741 5.68153 2.66359 5.55335 2.77347 5.3889C2.88335 5.22445 2.942 5.03111 2.942 4.83333C2.942 4.56812 2.83664 4.31376 2.64911 4.12623C2.46157 3.93869 2.20722 3.83333 1.942 3.83333ZM4.49333 13.404C4.29555 13.404 4.10221 13.4626 3.93776 13.5725C3.77331 13.6824 3.64514 13.8386 3.56945 14.0213C3.49377 14.204 3.47396 14.4051 3.51255 14.5991C3.55113 14.7931 3.64637 14.9713 3.78623 15.1111C3.92608 15.251 4.10426 15.3462 4.29824 15.3848C4.49222 15.4234 4.69329 15.4036 4.87602 15.3279C5.05874 15.2522 5.21492 15.124 5.3248 14.9596C5.43468 14.7951 5.49333 14.6018 5.49333 14.404C5.49333 14.1388 5.38798 13.8844 5.20044 13.6969C5.0129 13.5094 4.75855 13.404 4.49333 13.404ZM1.942 10.8333C1.74422 10.8333 1.55088 10.892 1.38643 11.0019C1.22198 11.1117 1.09381 11.2679 1.01812 11.4507C0.942433 11.6334 0.92263 11.8344 0.961215 12.0284C0.9998 12.2224 1.09504 12.4006 1.23489 12.5404C1.37475 12.6803 1.55293 12.7755 1.74691 12.8141C1.94089 12.8527 2.14196 12.8329 2.32468 12.7572C2.50741 12.6815 2.66359 12.5534 2.77347 12.3889C2.88335 12.2245 2.942 12.0311 2.942 11.8333C2.942 11.5681 2.83664 11.3138 2.64911 11.1262C2.46157 10.9387 2.20722 10.8333 1.942 10.8333ZM8 14C7.80222 14 7.60888 14.0587 7.44443 14.1685C7.27998 14.2784 7.15181 14.4346 7.07612 14.6173C7.00043 14.8 6.98063 15.0011 7.01922 15.1951C7.0578 15.3891 7.15304 15.5673 7.29289 15.7071C7.43275 15.847 7.61093 15.9422 7.80491 15.9808C7.99889 16.0194 8.19996 15.9996 8.38268 15.9239C8.56541 15.8482 8.72159 15.72 8.83147 15.5556C8.94135 15.3911 9 15.1978 9 15C9 14.7348 8.89464 14.4804 8.70711 14.2929C8.51957 14.1054 8.26522 14 8 14ZM14.0707 10.5067C13.8729 10.5067 13.6795 10.5653 13.5151 10.6752C13.3506 10.7851 13.2225 10.9413 13.1468 11.124C13.0711 11.3067 13.0513 11.5078 13.0899 11.7018C13.1285 11.8957 13.2237 12.0739 13.3636 12.2138C13.5034 12.3536 13.6816 12.4489 13.8756 12.4875C14.0696 12.526 14.2706 12.5062 14.4534 12.4305C14.6361 12.3549 14.7923 12.2267 14.9021 12.0622C15.012 11.8978 15.0707 11.7044 15.0707 11.5067C15.0707 11.2415 14.9653 10.9871 14.7778 10.7996C14.5902 10.612 14.3359 10.5067 14.0707 10.5067ZM11.5 13.058C11.3022 13.058 11.1089 13.1166 10.9444 13.2265C10.78 13.3364 10.6518 13.4926 10.5761 13.6753C10.5004 13.858 10.4806 14.0591 10.5192 14.2531C10.5578 14.4471 10.653 14.6253 10.7929 14.7651C10.9327 14.905 11.1109 15.0002 11.3049 15.0388C11.4989 15.0774 11.7 15.0576 11.8827 14.9819C12.0654 14.9062 12.2216 14.778 12.3315 14.6136C12.4414 14.4491 12.5 14.2558 12.5 14.058C12.5 13.7928 12.3946 13.5384 12.2071 13.3509C12.0196 13.1634 11.7652 13.058 11.5 13.058Z" fill="#6490FF"/>
</g>
<defs>
<clipPath id="clip0_274_7927">
<rect width="16" height="16" fill="white"/>
</clipPath>
</defs>
</svg>
