<svg width="36" height="36" viewBox="0 0 36 36" fill="none" xmlns="http://www.w3.org/2000/svg">
<rect width="36" height="36" rx="18" fill="#F1F1F1"/>
<g clip-path="url(#clip0_194_12979)">
<path d="M10.6667 13.1668H12.4907C12.6338 13.6933 12.9461 14.1581 13.3796 14.4895C13.813 14.8208 14.3434 15.0003 14.889 15.0003C15.4346 15.0003 15.965 14.8208 16.3984 14.4895C16.8319 14.1581 17.1442 13.6933 17.2873 13.1668H25.3333C25.5101 13.1668 25.6797 13.0966 25.8047 12.9716C25.9298 12.8466 26 12.677 26 12.5002C26 12.3234 25.9298 12.1538 25.8047 12.0288C25.6797 11.9037 25.5101 11.8335 25.3333 11.8335H17.2873C17.1442 11.307 16.8319 10.8422 16.3984 10.5109C15.965 10.1795 15.4346 10 14.889 10C14.3434 10 13.813 10.1795 13.3796 10.5109C12.9461 10.8422 12.6338 11.307 12.4907 11.8335H10.6667C10.4899 11.8335 10.3203 11.9037 10.1953 12.0288C10.0702 12.1538 10 12.3234 10 12.5002C10 12.677 10.0702 12.8466 10.1953 12.9716C10.3203 13.0966 10.4899 13.1668 10.6667 13.1668ZM14.8887 11.3335C15.1194 11.3335 15.345 11.4019 15.5368 11.5301C15.7287 11.6583 15.8782 11.8405 15.9665 12.0537C16.0548 12.2669 16.0779 12.5015 16.0329 12.7278C15.9879 12.9541 15.8768 13.162 15.7136 13.3251C15.5505 13.4883 15.3426 13.5994 15.1163 13.6444C14.89 13.6894 14.6554 13.6663 14.4422 13.578C14.229 13.4897 14.0468 13.3402 13.9186 13.1483C13.7904 12.9565 13.722 12.7309 13.722 12.5002C13.7224 12.1909 13.8454 11.8943 14.0641 11.6756C14.2828 11.4569 14.5794 11.3339 14.8887 11.3335Z" fill="#4F4F4F"/>
<path d="M25.3333 17.3332H23.5093C23.3665 16.8066 23.0542 16.3416 22.6208 16.0101C22.1874 15.6786 21.657 15.499 21.1113 15.499C20.5657 15.499 20.0352 15.6786 19.6018 16.0101C19.1684 16.3416 18.8562 16.8066 18.7133 17.3332H10.6667C10.4899 17.3332 10.3203 17.4034 10.1953 17.5284C10.0702 17.6535 10 17.823 10 17.9998C10 18.1767 10.0702 18.3462 10.1953 18.4712C10.3203 18.5963 10.4899 18.6665 10.6667 18.6665H18.7133C18.8562 19.1931 19.1684 19.6581 19.6018 19.9896C20.0352 20.321 20.5657 20.5007 21.1113 20.5007C21.657 20.5007 22.1874 20.321 22.6208 19.9896C23.0542 19.6581 23.3665 19.1931 23.5093 18.6665H25.3333C25.5101 18.6665 25.6797 18.5963 25.8047 18.4712C25.9298 18.3462 26 18.1767 26 17.9998C26 17.823 25.9298 17.6535 25.8047 17.5284C25.6797 17.4034 25.5101 17.3332 25.3333 17.3332ZM21.1113 19.1665C20.8806 19.1665 20.655 19.0981 20.4632 18.9699C20.2713 18.8417 20.1218 18.6595 20.0335 18.4463C19.9452 18.2331 19.9221 17.9985 19.9671 17.7722C20.0121 17.5459 20.1232 17.338 20.2864 17.1749C20.4495 17.0117 20.6574 16.9006 20.8837 16.8556C21.11 16.8106 21.3446 16.8337 21.5578 16.922C21.771 17.0103 21.9532 17.1598 22.0814 17.3517C22.2096 17.5435 22.278 17.7691 22.278 17.9998C22.2776 18.3092 22.1546 18.6057 21.9359 18.8244C21.7172 19.0431 21.4206 19.1662 21.1113 19.1665Z" fill="#4F4F4F"/>
<path d="M25.3333 22.8335H17.2873C17.1442 22.307 16.8319 21.8422 16.3984 21.5109C15.965 21.1795 15.4346 21 14.889 21C14.3434 21 13.813 21.1795 13.3796 21.5109C12.9461 21.8422 12.6338 22.307 12.4907 22.8335H10.6667C10.4899 22.8335 10.3203 22.9037 10.1953 23.0288C10.0702 23.1538 10 23.3234 10 23.5002C10 23.677 10.0702 23.8465 10.1953 23.9716C10.3203 24.0966 10.4899 24.1668 10.6667 24.1668H12.4907C12.6338 24.6933 12.9461 25.1581 13.3796 25.4894C13.813 25.8208 14.3434 26.0003 14.889 26.0003C15.4346 26.0003 15.965 25.8208 16.3984 25.4894C16.8319 25.1581 17.1442 24.6933 17.2873 24.1668H25.3333C25.5101 24.1668 25.6797 24.0966 25.8047 23.9716C25.9298 23.8465 26 23.677 26 23.5002C26 23.3234 25.9298 23.1538 25.8047 23.0288C25.6797 22.9037 25.5101 22.8335 25.3333 22.8335ZM14.8887 24.6668C14.6579 24.6668 14.4324 24.5984 14.2405 24.4702C14.0486 24.342 13.8991 24.1598 13.8108 23.9466C13.7225 23.7334 13.6994 23.4989 13.7444 23.2726C13.7894 23.0462 13.9005 22.8384 14.0637 22.6752C14.2269 22.512 14.4348 22.4009 14.6611 22.3559C14.8874 22.3109 15.122 22.334 15.3351 22.4223C15.5483 22.5106 15.7305 22.6601 15.8587 22.852C15.9869 23.0439 16.0553 23.2694 16.0553 23.5002C16.0548 23.8094 15.9317 24.1059 15.713 24.3245C15.4944 24.5432 15.1979 24.6663 14.8887 24.6668Z" fill="#4F4F4F"/>
</g>
<defs>
<clipPath id="clip0_194_12979">
<rect width="16" height="16" fill="white" transform="translate(10 10)"/>
</clipPath>
</defs>
</svg>
