<svg width="32" height="33" viewBox="0 0 32 33" fill="none" xmlns="http://www.w3.org/2000/svg">
<g clip-path="url(#clip0_613_1789)">
<path d="M8.29918 6.60693C4.15455 7.44548 2.0788 12.0644 4.23016 15.6729C4.59445 16.2915 5.4055 17.1506 5.95537 17.5218C6.27154 17.7349 6.31278 17.7761 6.19593 17.8173C4.66318 18.3672 3.57032 19.0271 2.50495 20.0374C1.42584 21.0684 0.656022 22.2575 0.223002 23.5841C-0.223765 24.945 0.00305481 26.0035 0.882842 26.6427C1.74201 27.2613 4.72504 27.9693 5.26803 27.6806C5.44674 27.5844 5.68731 27.2132 5.68731 27.0345C5.68731 26.7871 5.46736 26.4503 5.25429 26.3472C5.13057 26.2922 4.86251 26.2234 4.65631 26.196C3.73528 26.0791 2.30562 25.6873 1.94134 25.4468C1.84511 25.3849 1.72139 25.2543 1.65266 25.1581C1.54956 24.9931 1.54956 24.9519 1.65266 24.4982C2.32624 21.7145 4.95873 19.467 8.0861 19.0064C8.7047 18.9171 8.99338 18.7727 9.19271 18.4497C9.37142 18.1541 9.37142 17.673 9.19271 17.3775C9.03462 17.1231 8.58786 16.8894 8.26481 16.8826C7.983 16.8826 7.19257 16.4908 6.66332 16.0921C5.95537 15.556 5.44674 14.8068 5.13744 13.8239C4.94499 13.1985 4.92437 12.1056 5.0962 11.4595C5.77666 8.93699 8.33354 7.53483 10.8148 8.31839C11.4815 8.53147 12.0933 8.91637 12.705 9.50748C13.2274 10.0092 13.4885 10.0986 13.8803 9.91301C14.1621 9.77554 14.279 9.56247 14.279 9.18443C14.279 8.49023 12.7256 7.26677 11.2547 6.79251C10.3199 6.49009 9.21333 6.42135 8.29918 6.60693Z" fill="#8B8686" stroke="#8B8686" stroke-width="0.4"/>
<path d="M21.2898 6.63428C20.1557 6.87485 19.0766 7.46595 18.2518 8.29075C17.6813 8.86124 17.5438 9.14305 17.6469 9.53483C17.7363 9.86475 18.0387 10.0778 18.4236 10.0778C18.6504 10.0778 18.7467 10.016 19.2209 9.56919C19.8739 8.95747 20.3963 8.63442 21.0905 8.40073C23.1731 7.69965 25.51 8.68253 26.4792 10.6621C26.8091 11.3288 26.9259 11.8443 26.9259 12.6416C26.9259 13.6451 26.6854 14.4218 26.108 15.2534C25.5719 16.037 24.4515 16.8137 23.6474 16.958C23.4274 16.9993 23.1662 17.0749 23.0563 17.1299C22.4239 17.4598 22.4445 18.5939 23.0975 18.8963C23.2143 18.9513 23.5992 19.0475 23.9429 19.1094C26.5135 19.5493 28.6099 21.0133 29.7028 23.1303C29.8746 23.4602 30.0946 24.017 30.1908 24.3606C30.3626 24.9449 30.3626 24.993 30.2595 25.1923C30.2045 25.3091 30.0808 25.4535 29.9915 25.5085C29.5378 25.8109 28.2731 26.1752 27.2696 26.2989C26.7747 26.3539 26.6579 26.3951 26.4929 26.5601C26.1424 26.9175 26.1767 27.5224 26.5754 27.7904C26.9259 28.0241 28.0532 27.9004 29.5034 27.4536C30.8094 27.055 31.373 26.6563 31.751 25.8384C32.0328 25.2335 32.0741 24.7112 31.8816 23.9757C31.5311 22.6354 30.72 21.2333 29.6821 20.1954C28.5893 19.0956 27.4139 18.3877 25.7643 17.8035C25.6956 17.7828 25.7987 17.6866 26.0393 17.5216C26.5891 17.1505 27.4002 16.2913 27.7645 15.6727C28.3762 14.6417 28.6993 13.2808 28.6099 12.1398C28.3075 8.43509 24.8983 5.87134 21.2898 6.63428Z" fill="#8B8686" stroke="#8B8686" stroke-width="0.4"/>
<path d="M15.1245 10.5936C14.4303 10.7173 13.9836 10.8754 13.3306 11.219C12.5539 11.6246 11.9353 12.1332 11.4267 12.7724C9.7427 14.91 9.64648 17.7831 11.1861 20.0444C11.4817 20.4774 12.334 21.316 12.7189 21.5497C12.8563 21.6321 12.9732 21.7284 12.9732 21.7559C12.9732 21.7834 12.8426 21.8452 12.6914 21.8933C12.169 22.0514 10.6775 22.8556 10.0864 23.3024C8.51237 24.4846 7.37827 26.0792 6.88339 27.8044C6.45725 29.3028 6.86277 30.3338 8.12059 30.9318C9.81144 31.7291 12.1759 32.0728 16.0662 32.0728C20.1558 32.0728 22.5477 31.7153 24.1973 30.8493C24.7609 30.5606 25.1527 30.1413 25.3521 29.6052C25.4689 29.2891 25.4895 29.131 25.462 28.7048C25.3727 27.5982 24.7609 26.0586 23.9911 25.0276C23.0014 23.701 21.3586 22.5119 19.7297 21.9346C19.5303 21.859 19.3654 21.7834 19.3654 21.7627C19.3654 21.7421 19.5647 21.5772 19.8053 21.3985C21.0975 20.4499 21.9772 18.9241 22.1834 17.2607C22.3484 15.9685 22.0529 14.6076 21.3518 13.4185C20.9875 12.7999 19.9015 11.7208 19.2966 11.3634C18.0113 10.6211 16.5061 10.3393 15.1245 10.5936ZM17.0009 12.1744C19.2966 12.6143 20.8844 14.7932 20.5957 17.1095C20.3758 18.8759 19.1935 20.285 17.4752 20.8417C17.0284 20.9929 16.7879 21.0273 16.2036 21.0273C15.3376 21.0273 14.8084 20.9036 14.066 20.5187C13.0557 19.9894 12.2583 19.0546 11.9009 17.9618C11.736 17.4738 11.7085 17.2882 11.7085 16.5734C11.7085 15.8654 11.736 15.673 11.8941 15.1918C12.4989 13.3635 14.1829 12.1263 16.1143 12.0782C16.3067 12.0782 16.7054 12.1194 17.0009 12.1744ZM17.9495 23.0756C20.4514 23.5842 22.5477 25.1719 23.5306 27.2958C23.8124 27.9075 24.0599 28.8079 23.998 29.0072C23.9224 29.2547 23.7437 29.4059 23.2969 29.6121C22.0391 30.1895 19.5647 30.4919 16.1693 30.4919C12.657 30.4919 10.3132 30.1895 8.90415 29.5709C8.26493 29.2891 8.20307 29.0966 8.44364 28.2237C8.73919 27.1308 9.49526 25.9005 10.3407 25.1307C12.3752 23.268 15.1795 22.5119 17.9495 23.0756Z" fill="#8B8686" stroke="#8B8686" stroke-width="0.4"/>
</g>
<defs>
<clipPath id="clip0_613_1789">
<rect width="32" height="32" fill="white" transform="translate(0 0.5)"/>
</clipPath>
</defs>
</svg>
