<svg width="24" height="24" viewBox="0 0 24 24" fill="none" xmlns="http://www.w3.org/2000/svg">
<g clip-path="url(#clip0_981_5679)">
<path d="M8.14959 7.05298C6.07728 7.47225 5.0394 9.78169 6.11508 11.5859C6.29722 11.8952 6.70275 12.3248 6.97768 12.5104C7.13577 12.6169 7.15639 12.6376 7.09797 12.6582C6.33159 12.9331 5.78516 13.263 5.25248 13.7682C4.71292 14.2837 4.32801 14.8783 4.1115 15.5416C3.88812 16.222 4.00153 16.7513 4.44142 17.0709C4.871 17.3802 6.36252 17.7341 6.63402 17.5898C6.72337 17.5417 6.84365 17.3561 6.84365 17.2668C6.84365 17.143 6.73368 16.9746 6.62714 16.9231C6.56528 16.8956 6.43125 16.8612 6.32815 16.8475C5.86764 16.7891 5.15281 16.5932 4.97067 16.4729C4.92255 16.442 4.86069 16.3767 4.82633 16.3285C4.77478 16.2461 4.77478 16.2254 4.82633 15.9986C5.16312 14.6068 6.47937 13.483 8.04305 13.2527C8.35235 13.2081 8.49669 13.1359 8.59635 12.9744C8.68571 12.8266 8.68571 12.586 8.59635 12.4382C8.51731 12.3111 8.29393 12.1942 8.1324 12.1908C7.9915 12.1908 7.59628 11.9949 7.33166 11.7956C6.97768 11.5275 6.72337 11.1529 6.56872 10.6615C6.47249 10.3487 6.46218 9.80231 6.5481 9.47927C6.88833 8.21801 8.16677 7.51693 9.40741 7.90871C9.74077 8.01525 10.0466 8.2077 10.3525 8.50325C10.6137 8.75413 10.7443 8.79881 10.9402 8.70602C11.0811 8.63728 11.1395 8.53075 11.1395 8.34173C11.1395 7.99463 10.3628 7.3829 9.62736 7.14577C9.15997 6.99455 8.60666 6.96019 8.14959 7.05298Z" fill="#8B8686" stroke="#8B8686" stroke-width="0.4"/>
<path d="M14.6449 7.06714C14.0779 7.18742 13.5383 7.48298 13.1259 7.89538C12.8406 8.18062 12.7719 8.32152 12.8235 8.51741C12.8681 8.68237 13.0194 8.78891 13.2118 8.78891C13.3252 8.78891 13.3733 8.75798 13.6105 8.5346C13.9369 8.22873 14.1981 8.06721 14.5452 7.95036C15.5865 7.59982 16.755 8.09127 17.2396 9.08103C17.4045 9.41438 17.463 9.67214 17.463 10.0708C17.463 10.5725 17.3427 10.9609 17.054 11.3767C16.7859 11.7685 16.2258 12.1568 15.8237 12.229C15.7137 12.2496 15.5831 12.2874 15.5281 12.3149C15.212 12.4799 15.2223 13.0469 15.5487 13.1982C15.6072 13.2257 15.7996 13.2738 15.9715 13.3047C17.2568 13.5246 18.305 14.2567 18.8514 15.3151C18.9373 15.4801 19.0473 15.7585 19.0954 15.9303C19.1813 16.2224 19.1813 16.2465 19.1298 16.3461C19.1023 16.4046 19.0404 16.4767 18.9957 16.5042C18.7689 16.6554 18.1366 16.8376 17.6348 16.8995C17.3874 16.9269 17.3289 16.9476 17.2465 17.03C17.0712 17.2088 17.0884 17.5112 17.2877 17.6452C17.463 17.7621 18.0266 17.7002 18.7517 17.4768C19.4047 17.2775 19.6865 17.0782 19.8755 16.6692C20.0164 16.3668 20.037 16.1056 19.9408 15.7379C19.7655 15.0677 19.36 14.3666 18.8411 13.8477C18.2946 13.2978 17.707 12.9438 16.8822 12.6517C16.8478 12.6414 16.8994 12.5933 17.0196 12.5108C17.2946 12.3252 17.7001 11.8957 17.8822 11.5864C18.1881 11.0709 18.3496 10.3904 18.305 9.81991C18.1537 7.96755 16.4492 6.68567 14.6449 7.06714Z" fill="#8B8686" stroke="#8B8686" stroke-width="0.4"/>
<path d="M11.5623 9.04654C11.2152 9.1084 10.9918 9.18744 10.6653 9.35928C10.2769 9.56204 9.96765 9.81635 9.71334 10.136C8.87135 11.2048 8.82324 12.6413 9.59305 13.772C9.74083 13.9885 10.167 14.4077 10.3594 14.5246C10.4282 14.5658 10.4866 14.6139 10.4866 14.6277C10.4866 14.6414 10.4213 14.6724 10.3457 14.6964C10.0845 14.7755 9.33874 15.1776 9.04318 15.4009C8.25619 15.992 7.68914 16.7894 7.4417 17.652C7.22862 18.4012 7.43139 18.9167 8.0603 19.2156C8.90572 19.6143 10.0879 19.7861 12.0331 19.7861C14.0779 19.7861 15.2739 19.6074 16.0987 19.1744C16.3805 19.0301 16.5764 18.8204 16.676 18.5524C16.7345 18.3943 16.7448 18.3152 16.731 18.1022C16.6863 17.5489 16.3805 16.779 15.9956 16.2635C15.5007 15.6003 14.6793 15.0057 13.8648 14.717C13.7652 14.6792 13.6827 14.6414 13.6827 14.6311C13.6827 14.6208 13.7824 14.5383 13.9026 14.449C14.5487 13.9747 14.9886 13.2118 15.0917 12.3801C15.1742 11.734 15.0264 11.0536 14.6759 10.459C14.4937 10.1497 13.9507 9.61015 13.6483 9.43145C13.0057 9.06029 12.253 8.91938 11.5623 9.04654ZM12.5005 9.83697C13.6483 10.0569 14.4422 11.1463 14.2979 12.3045C14.1879 13.1877 13.5968 13.8922 12.7376 14.1706C12.5142 14.2462 12.3939 14.2634 12.1018 14.2634C11.6688 14.2634 11.4042 14.2015 11.033 14.0091C10.5278 13.7445 10.1292 13.2771 9.95047 12.7306C9.86799 12.4866 9.85424 12.3939 9.85424 12.0364C9.85424 11.6825 9.86799 11.5862 9.94703 11.3457C10.2495 10.4315 11.0914 9.81292 12.0571 9.78886C12.1534 9.78886 12.3527 9.80948 12.5005 9.83697ZM12.9747 15.2875C14.2257 15.5418 15.2739 16.3357 15.7653 17.3976C15.9062 17.7035 16.0299 18.1537 15.999 18.2534C15.9612 18.3771 15.8718 18.4527 15.6485 18.5558C15.0196 18.8445 13.7824 18.9957 12.0846 18.9957C10.3285 18.9957 9.15659 18.8445 8.45208 18.5352C8.13247 18.3943 8.10154 18.2981 8.22182 17.8616C8.3696 17.3152 8.74763 16.7 9.17034 16.3151C10.1876 15.3838 11.5898 15.0057 12.9747 15.2875Z" fill="#8B8686" stroke="#8B8686" stroke-width="0.4"/>
</g>
<defs>
<clipPath id="clip0_981_5679">
<rect width="16" height="16" fill="white" transform="translate(4 4)"/>
</clipPath>
</defs>
</svg>
