<svg width="242" height="242" viewBox="0 0 242 242" fill="none" xmlns="http://www.w3.org/2000/svg">
<g clip-path="url(#clip0_195_40355)">
<path d="M255.986 129.079C256.131 126.281 254.977 122.84 253.06 120.913C254.977 118.985 256.142 115.544 255.986 112.746C255.879 110.663 254.757 108.419 253.94 107.732C253.591 107.34 253.355 106.851 253.291 106.347C253.216 105.837 253.296 105.402 253.548 105.198C254.504 104.484 255.03 103.281 254.799 101.729C254.612 100.479 252.378 97.7619 249.94 95.5767C247.46 93.3809 244.555 91.7648 243.599 91.9957C243.266 92.0762 243.202 92.4198 243.347 92.9675C243.508 93.6708 244.104 94.7768 244.813 95.7861C245.199 96.4304 247.873 99.4423 248.018 100.36C248.184 101.429 246.15 102.476 246.305 103.512C246.418 104.376 249.618 107.463 250.134 108.274C250.595 108.961 252.765 111.227 252.872 113.353C253.028 116.322 251.825 119.302 249.172 119.318C247.76 119.329 243.562 116.821 241.757 108.548C241.51 107.791 240.979 103.786 240.775 102.868C240.565 101.971 241.108 97.1981 241.113 96.1405C240.968 92.9567 240.914 92.7097 239.427 86.9704C239.32 86.5892 239.266 86.3583 239.465 86.2993C239.594 86.2617 239.814 86.2778 240.147 86.4335C241.36 86.906 242.89 87.2442 244.442 86.8147C247.884 85.9181 250.37 80.5439 248.501 75.787C245.188 66.5633 240.7 68.5981 240.168 68.8236C238.804 69.4302 236.64 71.5456 237.924 75.175C238.686 77.2098 239.835 77.7359 240.624 77.4514C241.215 77.2366 241.532 76.6782 241.526 76.0662C241.505 75.1911 241.714 74.7562 242.042 74.6273C242.692 74.375 243.696 75.2555 244.179 76.6031C245.081 79.0674 243.894 81.9988 242.23 82.5142C236.801 84.0819 231.105 72.5013 230.482 72.061C230.117 71.2933 229.977 70.5201 230.46 69.6021C232.85 64.8023 233.993 58.7408 233.671 53.4578C233.575 50.7895 233.242 48.2607 232.764 46.14C232.205 44.073 231.443 42.4462 230.702 41.4261V41.4208L230.697 41.4154C226.798 35.7995 213.525 31.1984 203.845 32.9701C202.814 33.1634 202.105 32.8037 201.482 32.2346C198.797 29.3676 192.177 20.713 194.958 16.5038C195.839 15.2474 197.407 14.9199 199.222 16.2783C200.908 17.5346 201.74 18.7855 201.391 19.2204C201.219 19.4405 200.601 19.4083 199.662 19.1453C199.179 18.952 198.626 19.1453 198.282 19.5909C197.519 20.6002 197.584 22.6458 200.435 24.8148C203.109 27.1879 205.428 26.7637 206.739 25.3034C209.085 22.7532 208.784 17.5078 202.32 12.8422C197.122 8.83163 192.601 10.1041 191.071 12.5415C189.519 14.9575 190.566 16.7507 190.754 18.0232C190.819 18.501 190.829 18.7694 190.749 18.8822C190.631 19.0647 190.41 18.9627 190.008 18.7104C188.37 17.6957 180.536 14.3562 179.044 13.567C178.05 13.0784 173.556 10.8772 169.502 8.20347C165.336 5.80358 161.464 3.00102 162.334 0.364895C163.15 -2.09406 165.894 -2.5182 168.6 -1.51422C170.608 -0.789417 172.225 2.51782 173.105 3.94594C174.544 6.17403 175.999 6.87735 175.999 6.87735C176.434 7.08674 176.724 7.06526 176.912 6.85051C178.474 4.57947 178.958 4.18754 179.779 4.59021C181.138 5.27206 182.544 8.14978 182.491 9.40073C182.464 10.2812 183.06 11.0436 183.833 11.5C184.59 11.9563 185.669 12.2033 186.281 11.1778C186.979 10.0074 186.131 7.34445 184.821 4.83181C183.468 2.41581 181.61 0.284361 180.88 -0.091461C179.468 -0.77331 178.152 -0.63372 177.18 0.0642355C176.896 0.246778 176.456 0.18772 175.994 -0.0324041C175.532 -0.252528 175.124 -0.596136 174.877 -1.10081C174.517 -2.17996 172.745 -3.97854 170.759 -4.67649C168.122 -5.66437 164.466 -5.59994 162.023 -4.35436C160.836 -6.99048 157.845 -8.96086 155.139 -9.71251C153.11 -10.2387 150.613 -9.84673 149.7 -9.27763C149.217 -9.03603 148.691 -9.02529 148.197 -9.14877C147.687 -9.25615 147.3 -9.44406 147.187 -9.75009C146.801 -10.8722 145.813 -11.7419 144.272 -11.9889C143.026 -12.1876 139.745 -10.8722 136.91 -9.20246C134.075 -7.62401 131.654 -5.29391 131.573 -4.32214C131.552 -3.97317 131.863 -3.81747 132.422 -3.77989C133.147 -3.74767 134.365 -3.96243 135.536 -4.25235C136.271 -4.42952 139.96 -6.0724 140.884 -5.93281C141.952 -5.76637 142.333 -3.51681 143.359 -3.35574C144.229 -3.23763 148.143 -5.29928 149.061 -5.48182C149.861 -5.71269 152.702 -7.09249 154.769 -6.56097C157.663 -5.81469 160.138 -3.76915 159.333 -1.2404C158.909 0.101819 155.209 3.34463 146.736 2.57688C145.968 2.41044 141.968 1.83597 141.039 1.72322C140.127 1.64806 135.745 -0.279373 134.736 -0.63372C131.681 -1.59475 131.423 -1.51422 125.522 -1.84172C125.125 -1.85783 124.889 -1.86856 124.894 -2.07795C124.894 -2.21754 124.985 -2.41619 125.232 -2.69C126.054 -3.70472 126.838 -5.06305 126.913 -6.67372C127.122 -10.1152 122.784 -14.362 117.715 -13.9754C107.975 -13.5083 108.496 -8.84275 108.55 -8.24143C108.7 -6.78109 110.053 -3.86042 113.881 -4.06444C116.045 -4.17718 116.899 -5.12211 116.872 -5.96502C116.851 -6.59318 116.426 -7.06565 115.841 -7.24282C115.004 -7.47905 114.655 -7.81192 114.638 -8.1609C114.601 -8.85885 115.739 -9.54607 117.167 -9.61587C119.777 -9.75009 122.188 -7.72065 122.161 -5.9167C121.978 -0.467283 109.264 1.81449 108.625 1.93798C107.787 2.05609 107.009 1.95945 106.289 1.22392C102.504 -2.35176 97.0485 -5.55699 91.9315 -6.83478C86.8199 -8.18774 81.8963 -8.66557 79.5338 -7.76897L79.5284 -7.7636C76.382 -6.60392 72.4516 -3.45238 69.3428 0.799773C66.293 5.23447 63.909 10.3671 63.1305 15.1777C62.9855 16.2461 62.4324 16.8205 61.7076 17.2554C60.0001 18.2916 56.5047 19.4674 53.0307 19.9882C49.691 20.6861 46.2815 20.6808 44.7566 18.6782C43.8331 17.4541 43.9888 15.8488 45.8144 14.5012C47.5003 13.2502 48.9286 12.8207 49.2561 13.3146C49.4064 13.5401 49.1702 14.0931 48.6547 14.9307C48.3272 15.3387 48.3433 15.9347 48.6601 16.391C49.4011 17.438 51.2857 17.8943 54.3731 16.0635C57.4282 14.1898 57.7235 11.8167 56.7409 10.1255C55.0389 7.10285 50.0024 5.91095 43.4894 10.4799C38.2114 14.3777 37.8892 18.8876 39.7255 21.0781C41.5511 23.29 43.6398 22.9303 44.9445 23.1773C45.4117 23.2632 45.6694 23.333 45.7553 23.4404C45.8842 23.6068 45.7338 23.8055 45.358 24.0954C43.6666 25.0725 38.3564 31.7997 37.0892 32.9218C36.1871 33.5661 32.7669 37.2169 29.0728 40.3309C25.2283 43.2999 21.6953 46.3709 19.3811 44.6582C17.3032 43.1173 17.7005 40.3631 19.4509 38.0706C20.7611 36.3955 24.5894 36.0411 26.1143 35.5579C28.6379 34.86 29.7332 33.6681 29.7332 33.6681C30.0607 33.3137 30.1198 33.0346 29.9748 32.7769C28.2889 30.5864 28.0687 30.0011 28.6862 29.33C29.7225 28.2187 33.089 27.9878 34.2005 28.3583C35.0274 28.6428 35.924 28.2938 36.5791 27.6979C37.2342 27.102 37.7872 26.1409 37.0033 25.2443C35.3173 23.1504 25.6525 25.4752 24.5948 26.8711C23.537 28.02 23.2793 29.3247 23.6498 30.4843C23.741 30.7957 23.5531 31.2038 23.2095 31.585C22.8658 31.9662 22.4202 32.2507 21.8671 32.3366C20.7825 32.3903 18.4737 33.4802 17.0938 35.0479C15.3864 37.2706 14.3662 40.798 14.8226 43.5254L20.6376 47.7507C21.0456 47.697 21.4537 47.6218 21.8671 47.5198C22.9034 47.2997 23.4296 47.2997 23.7088 47.5145C24.0417 47.7722 23.8699 49.8714 24.1545 50.0754C25.6257 51.1438 26.5707 49.8607 28.6808 47.0635C28.9761 46.6125 30.3883 44.626 30.7373 44.32C31.2474 43.7562 31.6608 43.6113 31.9239 43.8368C32.1387 44.0193 32.1977 44.4703 32.1655 45.034C31.8165 48.4003 32.6541 54.1289 35.7254 58.7354C33.0139 57.9623 30.254 57.8012 27.7734 58.0267C25.3841 58.3113 23.2417 58.9502 21.6363 59.5944C21.1047 59.7985 20.7449 59.8468 20.5678 59.734C19.6872 59.2133 22.9625 53.4793 23.9343 52.4753C24.3907 51.8633 24.1061 51.1921 23.5961 50.8217C23.1397 50.4888 22.6027 50.3922 22.2215 50.7895C21.792 51.2512 21.4483 51.4874 21.1584 51.2834C20.8738 51.0848 20.7449 50.4244 20.7718 48.9802C20.7933 48.5829 20.7772 48.1963 20.7288 47.8205L14.8172 43.52C12.0413 43.8958 8.92168 45.8877 7.52565 48.3359C6.42494 50.1184 6.05445 52.6256 6.32292 53.6726C6.40883 54.2148 6.26386 54.7195 6.00076 55.1597C5.73766 55.6054 5.3994 55.9007 5.0665 55.9114C3.84766 55.9114 2.62345 56.5234 1.96302 57.9462C0.765663 60.3515 3.26777 71.7442 5.29201 72.4046C5.62491 72.5442 5.83431 72.2811 6.08667 71.7764C6.39272 71.1214 6.65045 69.9188 6.69877 68.6947C6.7471 67.9377 6.28534 63.8949 6.69877 63.0574C7.17128 62.0856 9.42103 62.4238 9.88279 61.4897C10.205 60.6736 9.73782 56.4644 9.73245 55.4711C9.74856 54.6282 9.28142 51.4874 10.4036 49.6674C11.8909 47.0796 14.8333 45.5226 16.9757 47.0635C18.1032 47.8688 19.8161 52.2283 16.6911 60.185C16.3743 60.9045 14.2803 64.3567 14.0172 65.2801C13.6735 66.1338 10.5432 69.7363 9.90427 70.5846C7.94446 73.1563 7.8854 73.4032 5.84505 78.9761C5.71082 79.3466 5.62491 79.5721 5.43161 79.5023C5.30275 79.454 5.13093 79.309 4.94837 78.9869C4.23425 77.8809 3.17649 76.7105 1.66771 76.1414C-1.58611 74.8582 -6.76751 77.7628 -8.16354 82.6646C-10.6495 92.1406 -6.05339 93.0802 -5.46276 93.2144C-4.02378 93.5204 -0.839768 93.1232 0.121342 89.3971C0.663645 87.2925 0.019325 86.1866 -0.786075 85.9503C-1.38744 85.7785 -1.96733 86.0416 -2.31633 86.5463C-2.7942 87.2711 -3.21301 87.5019 -3.55128 87.416C-4.22782 87.2388 -4.53924 85.9342 -4.17412 84.5437C-3.57813 81.9827 -0.673318 80.3828 0.969697 80.9411C5.88801 82.7397 4.40607 95.6465 4.22888 96.2693C3.998 97.0854 3.74027 97.8102 2.80064 98.2665C-1.7794 100.763 -6.34333 105.01 -9.27499 109.45C-12.1476 113.869 -13.9034 118.389 -14 120.902V120.913C-13.8765 124.252 -11.9167 128.928 -8.96357 133.202C-5.82251 137.481 -1.40892 141.304 2.80064 143.558C3.74027 144.009 4.00337 144.74 4.22888 145.556C5.10408 149.368 4.83025 160.433 0.379071 162.119C-1.07602 162.618 -2.57406 161.974 -3.33114 159.837C-3.89492 157.807 -3.77142 156.288 -3.23449 156.143C-2.96602 156.068 -2.50426 156.465 -1.92974 157.233C-1.67201 157.679 -1.11897 157.856 -0.582039 157.695C0.626061 157.33 1.82342 155.617 0.926743 152.138C0.0300643 148.664 -2.15525 147.655 -4.07211 148.058C-7.5568 148.761 -9.92468 153.094 -7.85211 160.793C-5.70975 167.01 -1.43576 168.696 1.20595 167.627C3.87451 166.58 4.14834 164.486 4.76581 163.327C4.98596 162.908 5.12556 162.693 5.25979 162.639C5.45846 162.564 5.60343 162.768 5.76988 163.214C6.10278 164.105 7.27866 166.441 8.48676 168.706C9.86668 170.897 11.2466 173.044 11.6171 173.818C12.197 176.003 21.3409 191.288 17.2817 194.337C15.2092 195.825 12.5513 194.702 11.107 192.206C9.99018 190.391 10.6989 186.719 10.715 185.114C10.7848 182.515 9.9687 181.119 9.9687 181.119C9.75392 180.684 9.51768 180.534 9.2331 180.588C6.65045 181.5 6.03835 181.533 5.63565 180.7C4.96448 179.337 5.66249 176.115 6.37125 175.16C6.89207 174.467 6.8169 173.511 6.43568 172.706C6.05445 171.912 5.28664 171.09 4.1913 171.563C1.62476 172.55 1.18447 182.316 1.97376 183.868C2.63419 185.296 3.8584 185.903 5.07724 185.908C5.41014 185.919 5.7484 186.225 6.0115 186.66C6.2746 187.1 6.41957 187.61 6.33903 188.147C6.07056 189.189 6.44105 191.701 7.54176 193.478C8.93779 195.927 12.052 197.918 14.8333 198.294C14.3769 201.022 15.3971 204.549 17.1045 206.772C18.4845 208.339 20.7933 209.435 21.8779 209.488C22.4255 209.569 22.8712 209.848 23.2148 210.235C23.5585 210.621 23.7464 211.024 23.6605 211.341C23.2954 212.495 23.5477 213.805 24.6055 214.949C26.3452 216.989 38.2329 217.805 39.4034 216.183C39.6289 215.92 39.4839 215.598 39.0651 215.217C38.5282 214.734 37.4489 214.138 36.2838 213.741C35.5697 213.472 31.5427 212.72 30.8608 212.076C30.0768 211.341 31.1561 209.247 30.4366 208.484C29.846 207.84 25.5773 207.11 24.6431 206.809C23.8484 206.535 20.6429 206.079 19.2791 204.442C17.4697 202.085 16.7555 198.901 18.8979 197.328C19.4563 196.914 20.949 196.598 23.0591 197.129C25.1424 197.688 27.8701 199.008 31.2742 201.644C31.8971 202.128 34.571 205.15 35.2582 205.789C35.8811 206.46 38.4691 210.406 39.0705 211.271C41.0571 213.757 40.9927 214.224 45.7499 217.756C46.0667 217.993 46.2546 218.132 46.1258 218.304C46.0399 218.417 45.8466 218.53 45.4868 218.615C44.2089 218.964 42.7538 219.625 41.7498 220.876C39.4839 223.63 40.8048 229.208 44.9069 232.204C53.1166 237.498 55.506 233.332 55.7959 232.838C56.5315 231.571 57.1383 228.435 53.863 226.427C52.0106 225.289 50.7541 225.574 50.2816 226.272C49.9326 226.792 50.0024 227.415 50.3783 227.893C50.926 228.559 51.0172 229.026 50.8239 229.321C50.4535 229.896 49.0843 229.847 47.903 229.037C45.7875 227.49 45.0841 224.349 46.1365 222.948C47.844 220.666 51.4629 221.343 54.8885 222.175C58.3356 223.002 61.4176 224.387 61.7129 224.57C62.4378 225.01 62.9908 225.579 63.1197 226.631C64.011 231.887 66.7816 237.208 70.0032 241.61C73.3376 245.718 77.1444 248.719 79.5177 249.572H79.5284C82.6909 250.689 87.8186 250.072 92.8121 248.595C97.8324 247.065 102.842 243.881 106.284 240.58C107.003 239.833 107.782 239.742 108.619 239.866C112.501 240.145 122.923 243.914 123.143 248.66C123.17 250.142 122.102 251.548 119.841 251.403C117.747 251.317 116.346 250.754 116.367 250.195C116.378 249.916 116.894 249.594 117.806 249.283C118.306 249.17 118.644 248.692 118.66 248.134C118.676 246.872 117.43 245.218 113.849 245.03C110.279 244.843 108.652 246.63 108.448 248.579C108.05 252.107 111.422 255.655 119.358 255.999C125.898 256.069 128.803 252.305 128.615 249.524C128.448 246.663 126.542 245.777 125.635 244.837C125.307 244.499 125.141 244.295 125.135 244.166C125.13 243.951 125.366 243.871 125.839 243.844C127.761 243.806 136.046 242.067 137.71 241.584C138.784 241.326 143.799 240.886 148.578 240.354C153.362 239.866 158.173 240.005 159.011 242.636C159.795 245.1 157.813 247.012 155.016 247.736C152.959 248.273 149.689 246.496 148.175 246.008C145.732 245.175 144.121 245.336 144.121 245.336C143.638 245.412 143.418 245.589 143.386 245.884C143.461 248.633 143.289 249.218 142.382 249.358C140.878 249.594 138.033 247.967 137.351 247.006C136.857 246.297 135.928 246.083 135.053 246.217C134.172 246.378 133.152 246.738 133.259 247.935C133.41 250.85 142.532 254.066 144.25 253.809C145.791 253.567 146.779 252.697 147.166 251.57C147.279 251.264 147.681 251.076 148.175 250.968C148.675 250.856 149.201 250.856 149.695 251.097C150.597 251.661 153.094 252.053 155.123 251.532C157.835 250.775 160.825 248.815 162.012 246.174L159.789 239.339C159.435 239.157 159.059 238.996 158.667 238.84C157.706 238.454 157.276 238.088 157.174 237.766C157.067 237.407 158.42 235.737 158.307 235.409C157.749 233.713 156.256 234.255 152.841 235.077C152.326 235.232 149.985 235.936 149.55 236.075C148.804 236.263 148.39 236.15 148.315 235.807C148.25 235.538 148.465 235.125 148.825 234.668C151.032 231.914 153.872 227.335 154.033 221.59C157.475 225.949 162.554 228.247 165.969 229.181C166.528 229.348 166.85 229.52 166.925 229.718C167.344 230.69 161.185 233.047 159.88 233.509C159.161 233.766 159 234.502 159.199 235.093C159.376 235.629 159.746 236.011 160.283 235.893C160.895 235.742 161.303 235.742 161.421 236.075C161.534 236.403 161.266 237.025 160.407 238.223C160.154 238.556 159.945 238.883 159.768 239.232L162.023 246.179C164.466 247.414 168.122 247.484 170.759 246.501C172.74 245.804 174.512 244.005 174.882 242.926C175.124 242.421 175.532 242.083 175.994 241.863C176.466 241.643 176.901 241.578 177.18 241.755C178.163 242.453 179.479 242.593 180.885 241.911C181.997 241.315 183.989 238.529 185.213 235.356C186.469 232.215 187.178 229.085 186.652 228.22C186.469 227.914 186.115 227.968 185.643 228.263C185.014 228.634 184.134 229.493 183.398 230.508C182.969 231.179 180.966 234.711 180.096 235.066C179.124 235.538 177.497 233.928 176.552 234.379C175.768 234.765 173.766 238.658 173.196 239.468C172.724 240.225 171.237 242.99 169.223 243.71C166.426 244.746 163.193 244.494 162.361 241.976C161.883 240.574 163.091 236.048 170.324 231.549C170.974 231.093 174.646 229.407 175.457 228.934C176.268 228.516 180.966 227.528 181.911 227.082C184.918 225.998 185.149 225.885 190.174 222.76C190.496 222.529 190.69 222.384 190.802 222.556C190.888 222.669 190.937 222.895 190.904 223.265C190.856 224.607 190.985 226.116 191.882 227.469C193.868 230.556 199.522 230.937 203.581 227.871C207.523 225.01 208.5 222.406 208.58 220.699C208.655 218.975 207.775 218.003 207.571 217.767C206.578 216.672 203.818 215.163 200.934 217.692C199.211 219.002 199.055 220.253 199.581 220.919C199.968 221.413 200.591 221.552 201.187 221.364C202.014 221.085 202.497 221.155 202.717 221.423C203.168 221.971 202.62 223.168 201.487 224.027C199.393 225.606 196.22 225.348 195.211 223.915C193.594 221.633 195.2 218.207 197.16 215.335C199.12 212.457 201.224 209.757 201.52 209.569C202.148 209.005 202.851 208.64 203.882 208.833C214.546 210.707 227.851 204.651 230.74 200.388L230.745 200.383C232.839 197.763 233.934 192.77 233.934 187.487C234.101 182.274 232.683 176.556 230.514 172.201C230.025 171.283 230.165 170.51 230.53 169.743C232.313 166.263 238.627 157.297 243.513 158.656C245.011 159.112 245.774 160.492 245.011 162.629C244.297 164.615 243.336 165.78 242.821 165.592C242.557 165.49 242.402 164.905 242.38 163.928C242.423 163.407 242.074 162.94 241.543 162.758C240.351 162.35 238.402 163.037 237.151 166.403C235.959 169.791 236.952 171.81 238.756 172.62C242.069 174.124 246.579 172.051 249.232 164.513C251.508 158.339 248.641 154.339 245.983 153.679C243.202 152.959 241.795 154.506 240.63 155.085C240.211 155.3 239.969 155.391 239.841 155.354C239.642 155.295 239.631 155.037 239.749 154.581C240.211 152.707 241.22 144.283 241.242 142.56C241.355 141.465 242.31 136.531 243.411 131.838C244.367 127.151 245.951 122.631 248.705 122.641C251.293 122.657 252.518 125.116 252.378 127.999C252.265 130.12 249.597 132.67 248.684 133.954C246.982 136.004 246.74 137.599 246.74 137.599C246.67 138.088 246.772 138.351 247.046 138.463C249.688 139.247 250.198 139.58 250.064 140.482C249.838 141.985 247.438 144.187 246.316 144.552C245.489 144.809 245.038 145.625 244.856 146.495C244.641 147.36 244.727 148.46 245.886 148.718C248.727 149.47 254.644 141.792 254.864 140.074C255.095 138.522 254.569 137.314 253.613 136.606C253.361 136.402 253.28 135.962 253.355 135.462C253.42 134.952 253.656 134.458 254.01 134.072C254.762 133.411 255.884 131.167 255.986 129.079ZM203.775 42.6341C206.4 39.939 216.758 43.3858 221.553 48.0836L221.606 48.046C223.244 51.9438 223.818 56.3516 223.765 59.7824C223.7 63.2292 222.906 65.7794 221.343 66.6223C218.154 68.233 211.131 65.5324 210.599 64.668C210.422 64.3781 210.427 63.9808 210.519 63.5943C211.088 61.6024 210.621 59.3153 208.999 57.216V57.2107C207.404 55.0953 205.391 53.9195 203.442 53.7638C203.071 53.7155 202.685 53.592 202.454 53.3451C201.767 52.5934 201.257 45.1683 203.775 42.6341ZM206.245 77.14C205.783 75.889 201.675 73.72 199.656 74.9602C199.232 75.2018 197.498 76.5279 196.875 78.9815C196.548 80.3667 195.404 81.9075 193.879 83.2229C192.977 83.9316 191.866 84.6779 190.684 85.2846C188.682 86.2939 182.496 88.7636 180.703 86.047C179.747 84.5651 180.875 80.211 187.742 75.3629C193.138 71.61 200.032 69.3927 206.132 69.0115C212.231 68.5605 217.45 69.8759 218.229 71.7335C219.958 75.3414 209.294 84.2269 203.769 86.3584C196.408 89.2951 187.044 90.4763 186.383 89.0696C186.351 88.9837 186.432 88.8441 186.614 88.7475C186.802 88.6562 187.098 88.6133 187.533 88.5596C188.204 88.5113 193.272 88.0549 199.785 85.1504C203.544 83.4538 207.791 80.3345 206.245 77.14ZM196.923 56.2711C194.786 61.8709 190.249 68.0021 185.132 71.8892C178.974 76.5172 174.453 76.6729 173.266 75.5884C172.649 74.9334 172.106 70.8584 176.525 66.37C177.427 65.4841 178.432 64.6305 179.269 63.8842C180.783 62.542 181.927 62.2413 183.436 62.2467C184.381 62.2467 186.942 62.2628 188.724 60.6897C190.147 59.4441 191.372 56.2228 189.283 53.9249C188.327 52.8726 185.202 51.1223 179.554 57.3717C174.775 62.6708 172.826 67.3095 172.579 67.9323C172.391 68.3243 172.262 68.5873 172.123 68.7377C171.972 68.888 171.8 68.9256 171.736 68.8611C170.565 67.8303 174.49 59.3743 179.597 53.2431C183.291 48.6795 195.135 41.1899 198.073 43.8905C199.458 45.3454 199.152 50.6821 196.923 56.2711ZM156.331 7.076C157.072 7.26928 157.604 6.84514 157.803 6.23309C157.974 5.70157 157.905 5.15394 157.411 4.90697C156.825 4.68148 156.492 4.45062 156.594 4.11238C156.691 3.80098 157.298 3.38221 158.678 2.98491C159.059 2.8829 159.424 2.75942 159.762 2.59835L159.8 2.4856C159.972 2.86143 160.17 3.23188 160.401 3.60233C160.933 4.53652 161.083 5.04119 160.965 5.3687C160.831 5.76599 158.785 6.21698 158.678 6.54985C158.119 8.27863 159.623 8.81552 162.919 10.0235C163.43 10.19 165.755 10.9416 166.184 11.0866C166.909 11.355 167.183 11.6825 167.038 11.9993C166.93 12.257 166.512 12.4771 165.964 12.6435C162.549 13.5777 157.459 15.8702 154.028 20.2351C153.872 14.4958 151.026 9.91077 148.82 7.15653C148.465 6.70555 148.299 6.37268 148.352 6.16866C148.589 5.13247 155 6.71092 156.331 7.076ZM104.512 13.5938C106.391 13.3093 108.797 16.3588 110.595 20.2351C112.421 24.1759 113.683 29.0133 113.919 31.9232C114.241 35.9016 113.822 40.1215 113.248 43.3697C112.668 46.7199 111.911 49.0929 111.095 49.2218C110.998 49.2379 110.885 49.1144 110.858 48.905C110.826 48.6956 110.88 48.4057 110.96 47.9708C111.122 47.3051 112.265 42.3066 111.519 35.2143C111.079 31.1071 109.436 26.1355 105.924 26.6671C104.609 26.8389 101.215 29.7327 101.79 32.1594C101.897 32.6802 102.59 34.5915 104.754 36.1002C105.999 36.9807 107.084 38.441 107.868 40.304C108.26 41.3778 108.625 42.661 108.834 43.9764C109.172 46.1776 109.607 52.9317 106.445 53.6135C104.754 54.0913 101.016 51.8364 98.5036 43.6811C96.6297 37.4585 96.6512 30.1837 98.1653 24.1974C99.5828 18.1037 102.531 13.8945 104.512 13.5938ZM74.7336 10.5121C76.9296 7.6451 80.1781 4.73517 83.0185 3.01712L82.997 2.9527C91.6577 2.72183 100.039 5.42776 100.624 9.09471C101.135 12.4717 96.3881 18.3238 95.4216 18.6406C95.0941 18.7265 94.7182 18.603 94.38 18.4044C92.7047 17.3789 90.31 16.8796 87.8133 17.7762H87.8025C85.3165 18.6835 83.5876 20.2835 82.8466 22.125C82.6909 22.4793 82.4493 22.7907 82.1325 22.9088C81.1123 23.0914 73.9872 21.5076 72.3496 18.3185C71.5281 16.6273 72.6234 13.6207 74.7336 10.5121ZM71.8127 24.1652C73.6221 23.3169 78.5243 25.0725 83.1795 28.9811C87.9475 33.0024 92.2591 38.935 94.3961 45.0716C96.8874 52.3679 95.7008 56.8456 94.2296 57.4147C93.435 57.8335 89.4563 57.1892 86.5461 51.6002C85.9823 50.4781 85.4776 49.2486 85.0212 48.2285C84.2105 46.3709 84.2695 45.179 84.7259 43.7133C85.0105 42.8059 85.7944 40.3255 84.8494 38.1404C84.1031 36.4062 81.4399 34.2801 78.6425 35.6224C77.327 36.17 74.6101 38.4303 78.8733 45.8394C82.4386 52.0136 86.2132 55.2349 86.7716 55.745C87.0991 56.0564 87.3139 56.2604 87.4106 56.4483C87.5126 56.6362 87.4911 56.7973 87.4052 56.8348C86.0092 57.5113 79.2868 51.3747 75.0074 44.5938C73.4772 42.0865 71.6945 37.5068 70.8462 33.2171C69.9549 28.9059 70.073 24.9383 71.8127 24.1652ZM2.01135 131.07C-0.0719535 128.107 -1.88142 124.134 -2.67608 120.907H-2.74051C-1.41966 116.816 0.46498 112.902 2.457 110.164C4.45976 107.41 6.8867 105.842 8.59952 106.073C10.366 106.309 12.1701 108.086 13.5232 109.842C15.0212 111.624 16.0897 113.407 16.0629 113.949C16.0468 114.287 15.8213 114.609 15.526 114.867C13.9903 116.134 12.9809 118.266 12.8467 120.907V120.918C12.9755 123.559 13.9903 125.691 15.526 126.963C15.8213 127.221 16.0468 127.538 16.0629 127.881C16.0897 128.424 15.0266 130.211 13.5232 131.989C12.1701 133.744 10.366 135.521 8.59952 135.757C6.80616 135.999 4.00874 134.061 2.01135 131.07ZM30.85 112.038C31.3333 112.091 33.4649 112.032 35.5804 110.432C36.7885 109.514 38.5013 108.929 40.5095 108.752C41.6478 108.709 42.9847 108.757 44.2948 108.961C46.4533 109.31 53.1542 110.98 52.6978 114.196C52.6549 115.979 49.4118 118.862 40.8746 118.738C34.3777 118.604 27.4405 116.333 22.1786 113.047C16.7609 109.82 13.8239 105.735 14.044 103.748C14.3554 101.874 17.9099 100.5 22.2376 100.001C26.6083 99.4799 31.5373 99.7591 34.3938 100.43C42.1149 102.384 50.0615 106.857 49.9595 108.419C49.9487 108.516 49.7984 108.58 49.589 108.543C49.3796 108.51 49.1219 108.371 48.7245 108.156C48.1446 107.802 43.7149 105.176 36.7348 103.705C32.6971 102.862 27.462 102.905 26.925 106.417C26.7586 107.727 28.3855 111.839 30.85 112.038ZM36.7402 138.12C43.7203 136.649 48.15 134.018 48.7299 133.669C49.1219 133.454 49.385 133.32 49.589 133.282C49.7984 133.25 49.9487 133.315 49.9595 133.411C50.0615 134.974 42.1149 139.451 34.3938 141.395C31.5373 142.071 26.6029 142.35 22.2323 141.824C17.8992 141.325 14.3447 139.945 14.0387 138.077C13.8185 136.09 16.7555 132.005 22.1732 128.778C27.4351 125.492 34.3723 123.226 40.8692 123.087C48.5635 122.974 52.5636 125.508 52.6119 127.108C52.526 128.026 50.9528 131.575 44.6761 132.601C43.4304 132.788 42.1042 132.89 40.9873 133.003C38.9685 133.202 37.8409 132.772 36.5684 131.887C35.7844 131.328 33.6099 129.83 31.2742 130.045C29.3627 130.211 26.5707 132.085 27.0271 135.145C27.2526 136.547 28.466 139.854 36.7402 138.12ZM32.1655 196.796C32.1977 197.355 32.144 197.709 31.983 197.849C31.0809 198.632 26.9412 193.516 26.1733 192.367C25.717 191.76 24.9814 191.825 24.4766 192.195C24.0256 192.528 23.7732 193.001 24.0363 193.484C24.3585 194.031 24.482 194.418 24.1974 194.633C23.9236 194.842 23.2524 194.767 21.8618 194.316C21.4805 194.176 21.1047 194.074 20.7288 194.01L20.6268 194.085C20.6966 193.688 20.7396 193.274 20.7664 192.85C20.8631 191.809 21.0188 191.32 21.3087 191.116C21.6524 190.88 23.6336 191.669 23.9129 191.449C25.4163 190.354 24.3478 189.156 22.4309 186.23C22.1302 185.785 20.7718 183.761 20.5248 183.379C20.1275 182.724 20.106 182.295 20.4121 182.112C20.6483 181.973 21.1047 182.043 21.6363 182.241C23.2363 182.88 25.3787 183.524 27.7734 183.804C30.254 184.029 33.0192 183.868 35.7254 183.095C32.6541 187.691 31.8165 193.43 32.1655 196.796ZM70.8462 208.613C71.6945 204.324 73.4772 199.744 75.0074 197.237C79.2868 190.456 86.0092 184.319 87.4052 184.996C87.4911 185.033 87.5126 185.194 87.4106 185.382C87.3086 185.57 87.0991 185.774 86.7716 186.085C86.2132 186.595 82.4386 189.817 78.8733 195.991C76.8383 199.54 75.1202 204.758 78.3579 206.229C79.5499 206.799 84.0279 206.396 84.9407 204.205C85.1447 203.76 85.7729 201.655 84.887 199.207C84.3823 197.795 84.35 195.991 84.8011 194.047C85.1125 192.952 85.5743 191.696 86.1703 190.52C87.1636 188.598 90.8738 182.665 93.7786 184.115C95.3679 184.877 97.1667 188.636 94.3907 196.753C92.2537 202.895 87.9421 208.823 83.1742 212.844C78.5243 216.752 73.6221 218.508 71.8073 217.654C70.0676 216.887 69.9549 212.924 70.8462 208.613ZM83.0077 238.803L82.9916 238.867C79.4801 236.365 76.2907 233.46 74.3201 230.663C72.3979 227.721 71.5764 225.117 72.3496 223.507C73.9926 220.317 81.1177 218.728 82.1379 218.922C82.4547 219.034 82.6963 219.351 82.852 219.705C83.593 221.547 85.3165 223.147 87.8079 224.054H87.8186C90.31 224.951 92.7101 224.457 94.3853 223.426C94.7236 223.222 95.0994 223.104 95.427 223.19C96.3935 223.507 101.145 229.359 100.63 232.736C100.055 236.666 89.7301 239.517 83.0077 238.803ZM104.507 228.237C102.531 227.925 99.5828 223.721 98.1546 217.617C96.6405 211.631 96.619 204.356 98.4929 198.133C100.764 190.778 104.394 187.707 105.913 188.126C106.746 188.501 109.634 191.154 108.7 197.398C108.496 198.632 108.185 199.937 107.948 201.032C107.513 203.019 106.762 203.964 105.521 204.914C104.743 205.553 102.665 207.051 102.155 209.322C101.731 211.212 102.627 214.557 105.704 214.975C107.105 215.19 110.628 215.024 111.519 206.605C112.26 199.513 111.122 194.515 110.96 193.849C110.88 193.414 110.826 193.124 110.858 192.915C110.885 192.705 110.998 192.582 111.089 192.592C111.911 192.721 112.668 195.094 113.248 198.445C113.828 201.693 114.241 205.923 113.919 209.896C113.688 212.806 112.421 217.638 110.595 221.584C108.797 225.472 106.386 228.521 104.507 228.237ZM198.083 197.929C195.135 200.63 183.301 193.135 179.602 188.571C174.496 182.44 170.571 173.989 171.747 172.958C171.822 172.894 171.988 172.932 172.128 173.082C172.267 173.232 172.402 173.495 172.584 173.887C172.831 174.499 174.78 179.143 179.559 184.443C182.319 187.481 186.657 190.617 189.229 188.174C190.121 187.186 191.044 182.73 189.24 181.189C188.88 180.856 187.071 179.616 184.51 179.739C183.033 179.809 181.326 179.299 179.613 178.279C178.673 177.651 177.631 176.829 176.697 175.901C175.167 174.365 170.657 168.991 172.853 166.586C174.152 165.367 178.324 164.83 185.132 169.941C190.249 173.828 194.786 179.954 196.923 185.554C199.152 191.143 199.458 196.48 198.083 197.929ZM221.59 193.79C214.975 199.261 206.218 201.639 203.775 199.191C201.262 196.657 201.772 189.237 202.454 188.48C202.685 188.238 203.061 188.115 203.442 188.061C205.391 187.905 207.404 186.73 208.999 184.614C210.621 182.51 211.093 180.223 210.508 178.231C210.417 177.844 210.417 177.447 210.599 177.157C211.131 176.293 218.154 173.592 221.343 175.208C223.002 176.105 223.786 179.122 223.786 182.81C223.829 186.504 223.029 190.837 221.547 193.752L221.59 193.79ZM199.775 156.68C193.262 153.77 188.198 153.319 187.522 153.265C187.087 153.206 186.792 153.169 186.604 153.078C186.416 152.976 186.33 152.841 186.373 152.75C187.033 151.343 196.397 152.525 203.759 155.461C209.289 157.587 219.953 166.484 218.218 170.092C217.45 171.949 212.221 173.265 206.126 172.814C200.022 172.438 193.133 170.215 187.737 166.457C181.546 162.092 179.645 157.609 180.483 156.267C180.998 155.526 184.697 153.77 190.217 156.535C191.334 157.11 192.467 157.813 193.444 158.377C195.184 159.402 195.898 160.444 196.392 161.888C196.655 162.774 197.396 165.19 199.431 166.403C200.988 167.337 204.688 167.654 205.998 164.841C206.626 163.568 207.501 160.138 199.775 156.68ZM236.721 152.723C236.114 155.563 233.827 159.134 231.54 161.802C229.284 164.492 227.094 166.301 226.138 165.888C226.138 165.888 224.463 164.309 222.487 162.618C220.538 160.943 218.385 159.198 217.676 158.704C217.134 158.35 216.94 158.065 217.037 157.813C217.327 157.029 222.143 157.072 222.417 156.342C222.75 155.429 220.285 154.022 217.365 153.061C212.886 151.58 206.932 151 201.928 150.559C196.913 150.151 192.848 149.899 191.79 149.969C191.339 149.99 190.985 149.947 190.663 149.813C190.147 149.598 189.852 149.169 189.992 148.761C190.002 148.729 190.325 148.423 190.862 147.977C191.388 147.531 192.107 146.957 192.896 146.388C194.464 145.25 196.344 144.128 197.24 144.396C197.643 144.514 197.954 144.724 198.287 144.831C199.356 145.164 199.93 144.847 200.193 143.768C200.591 142.179 199.678 141.83 199.136 141.685C198.599 141.54 197.901 141.459 196.478 141.083C195.871 140.917 194.019 140.273 193.976 139.865C193.868 138.275 192.875 136.611 191.919 136.407C190.475 136.117 186.4 136.504 186.271 136.971C186.088 137.663 191.538 140.912 191.377 141.593C191.318 142.002 184.842 141.228 184.547 141.846C184.44 142.13 184.918 142.646 185.847 142.963C187.296 143.478 189.729 143.371 190.722 143.698C191.184 143.843 191.398 144.063 191.296 144.337C191.066 144.895 188.622 146.613 185.465 148.412C182.679 149.808 180.042 150.313 178.678 152.814C177.481 154.704 177.589 156.997 178.866 159.617C179.999 162.113 182.335 164.964 186.094 167.697C188.418 169.372 191.13 170.891 194.072 172.201C195.919 173.12 204.655 175.466 206.153 176.352C206.798 176.77 206.948 177.184 206.68 177.635C206.492 178.07 204.666 179.122 203.555 180.647C202.422 182.161 201.89 184.153 201.616 184.528C201.299 184.953 200.87 184.942 200.274 184.459C198.91 183.256 193.949 175.632 192.564 174.209C190.432 171.815 188.161 169.71 185.852 168.019C178.179 162.597 172.45 162.425 169.357 165.517C167.553 167.745 167.752 170.312 167.231 173.34C166.71 177.178 165.583 179.734 165.169 180.19C164.944 180.362 164.654 180.223 164.375 179.825C163.768 178.972 163.129 176.658 162.195 175.439C161.609 174.655 160.954 174.354 160.718 174.537C160.106 174.993 163.515 181.887 163.145 182.182C162.785 182.51 160.342 180.062 158.409 177.978C157.496 176.969 156.761 176.846 156.364 177.082C155.848 177.388 155.703 178.295 156.208 179.138C156.385 179.439 156.675 179.75 157.045 180.019C163.886 184.872 165.379 188.222 166.56 189.226C167.059 189.591 167.763 189.495 168.214 189.113C168.981 188.534 168.772 188.244 167.038 185.79C165.959 184.077 169.062 177.769 169.014 177.603C169.336 177.313 169.814 177.436 170.184 177.86C170.404 178.129 170.565 178.456 170.689 178.907C171.022 179.997 172.547 183.841 174.431 188.415C176.375 193.001 178.754 198.461 181.54 202.262C183.366 204.737 185.471 206.654 186.249 206.074C186.996 205.515 184.574 200.163 185.331 199.604C185.745 199.384 193.557 205.209 195.366 205.966C195.855 206.192 196.236 206.412 196.419 206.621C197.938 208.178 192.204 217.606 187.275 220.86C182.931 223.539 178.115 224.698 176.966 222.535C175.999 220.752 175.811 218.911 177.594 217.837C178.883 217.053 180.257 217.944 182.115 217.3C182.534 217.128 182.883 216.989 183.194 216.806C184.44 216.028 184.998 214.895 184.225 213.773C183.887 213.279 182.212 212.318 179.989 213.681C179.747 213.821 178.389 214.981 178.324 215.024C178.018 215.201 177.733 215.136 177.546 214.836C177.368 214.53 178.115 212.935 177.927 212.645C177.594 212.108 176.262 212.839 175.913 213.053C173.787 214.438 171.548 217.542 173.277 220.962C173.502 221.397 175.033 223.217 175.296 223.711C175.489 224.081 175.387 224.366 175.049 224.532C173.143 225.461 169.153 225.284 167.435 221.45C166.608 219.679 163.773 218.943 162.979 219.324C162.485 219.528 162.646 223.023 162.034 223.249C161.196 223.571 155.51 222.223 152.895 214.175C151.612 210.369 151.306 206.229 151.977 202.815C152.31 201.102 152.906 199.572 153.792 198.343C154.64 197.006 155.751 195.878 157.271 195.159C158.425 194.6 159.725 194.413 161.099 194.515C162.409 194.504 163.789 194.756 165.148 195.234C167.854 196.184 170.474 197.951 171.876 200.125C172.638 201.301 175.21 206.197 171.065 208.721C169.293 209.827 168.192 208.447 168.09 208.264C167.859 207.829 168.101 207.352 168.649 206.664C169.11 206.058 168.788 204.86 168.273 203.953C167.682 202.917 165.787 200.936 163.07 202.149C160.815 203.223 160.267 206.831 161.336 209.263C162.377 211.652 166.109 214.916 171.806 211.947C177.277 208.629 176.252 202.541 174.217 199.615C167.483 190.171 158.592 192.394 157.776 192.442C157.26 192.684 156.734 192.55 156.519 192.109C156.423 191.921 156.396 191.631 156.406 191.32C156.514 189.715 155.848 187.406 154.946 185.667C154.232 184.319 151.08 179.326 147.424 181.151C145.378 182.032 144.444 185.146 145.652 188.625C146.688 191.594 149.26 192.737 150.726 192.222C151.757 191.878 152.057 190.821 151.757 190.15C151.665 189.956 151.332 189.189 150.608 189.559C150.495 189.65 149.861 190.144 149.684 190.219C149.051 190.445 147.805 189.774 147.134 188.013C146.409 186.075 147.22 183.696 148.245 183.17C150.398 182.086 152.412 184.179 153.416 186.171C154.882 189.317 155.01 190.187 151.655 197.526C150.334 200.152 149.389 203.438 149.389 207.405C147.107 204.388 144.352 202.079 141.737 200.7C134.757 196.952 134.301 195.943 133.657 192.582C133.281 190.305 133.743 187.707 136.067 187.1C137.147 186.794 139.08 187.675 139.686 189.897C140.18 191.717 139.574 192.958 138.919 193.135C138.736 193.183 137.925 193.108 137.796 193.14C137.012 193.35 137.195 194.166 137.238 194.37C137.399 195.127 138.21 195.626 139.257 195.357C140.75 194.96 142.167 192.593 141.26 189.581C140.213 186.102 137.71 184.389 135.557 184.99C131.552 185.801 131.879 191.449 132.11 193.027C132.4 194.96 133.216 197.242 134.242 198.509C134.441 198.761 134.586 199.024 134.628 199.228C134.709 199.712 134.355 200.12 133.791 200.206C133.571 200.2 131.305 201.038 129.071 203.126C126.838 205.075 124.486 208.57 124.663 214.541C124.727 218.02 127.498 223.909 133.769 223.19C140.062 222.234 141.174 217.606 140.61 215.013C140.051 212.425 137.49 209.757 135.058 210.133C132.094 210.584 131.912 213.73 131.976 214.353C132.089 215.324 132.572 216.387 133.206 216.924C133.769 217.477 134.097 217.987 134.161 218.476C134.258 219.168 133.71 219.952 132.255 220.172C127.997 220.543 126.95 215.367 126.854 213.665C126.709 211.051 127.691 208.393 129.254 206.38C130.827 204.35 132.921 202.563 135.461 202.23C138.817 201.902 141.684 202.605 144.347 205.027C146.962 207.335 149.255 210.868 150.559 215.072C152.487 220.913 150.779 228.73 148.03 229.434C146.908 229.724 146.226 227.732 146.13 227.313C146.065 227.039 146.033 225.396 146.033 225.396C145.947 225.058 145.636 224.924 145.303 225.004C144.723 225.155 142.597 227.447 143.053 229.842C143.327 231.211 143.558 233.085 142.865 233.836C142.446 234.325 139.364 236.215 138.682 236.322C138.312 236.381 138.059 236.209 138 235.785C137.92 235.232 138.081 232.741 138 232.247C137.421 228.553 134.935 226.309 131.171 226.685C130.763 226.706 129.27 226.846 129.318 227.474C129.34 227.823 130.87 228.725 130.902 229.069C130.934 229.418 130.741 229.638 130.387 229.659C130.317 229.665 128.55 229.477 128.266 229.493C125.694 229.622 124.905 231.34 124.921 231.968C124.958 233.294 126.07 233.944 127.519 233.869C127.885 233.852 128.25 233.756 128.679 233.664C130.537 233.144 131.128 231.646 132.615 231.56C134.65 231.259 135.697 233.788 135.96 235.796C136.116 237.015 135.09 238.158 133.361 239.082C131.622 239.855 129.189 240.359 126.655 240.483C125.216 240.558 123.471 240.397 121.683 240.096C119.895 239.704 118.069 239.039 116.448 238.378C113.199 237.031 110.81 235.458 110.901 234.475C110.901 234.475 111.841 232.328 112.877 229.965C113.876 227.608 114.853 225.026 115.1 224.199C115.272 223.587 115.481 223.308 115.75 223.329C116.582 223.372 118.027 227.99 118.81 228.033C119.777 228.081 120.351 225.3 120.373 222.229C120.4 217.51 119.1 211.647 117.973 206.729C116.813 201.805 115.777 197.849 115.39 196.845C115.229 196.421 115.159 196.066 115.186 195.723C115.229 195.164 115.551 194.756 115.981 194.778C116.013 194.778 116.416 195.003 117.001 195.379C117.586 195.744 118.365 196.276 119.154 196.855C120.727 198.101 122.386 199.373 122.403 200.313C122.408 200.737 122.311 201.091 122.311 201.44C122.322 202.557 122.805 203.014 123.917 202.954C125.56 202.858 125.613 201.886 125.581 201.322C125.587 200.753 125.442 200.061 125.366 198.595C125.334 197.967 125.382 196.007 125.758 195.846C127.246 195.288 128.54 193.843 128.432 192.872C128.271 191.411 126.639 187.616 126.145 187.637C125.409 187.658 123.986 193.827 123.272 193.87C122.864 193.865 121.597 187.594 120.91 187.535C120.609 187.514 120.255 188.115 120.239 189.097C120.206 190.633 121.055 192.931 121.06 193.983C121.06 194.472 120.915 194.74 120.631 194.724C120.013 194.686 117.624 192.77 114.902 190.37C112.673 188.367 111.422 185.645 108.587 185.328C104.405 184.265 99.7117 188.378 96.7532 197.054C95.878 199.776 95.2659 202.852 94.9384 206.047C94.6645 207.99 95.1692 216.919 94.7773 218.696C94.5733 219.437 94.2296 219.711 93.7195 219.582C93.2846 219.415 91.604 218.369 89.8536 217.665C88.0817 217.021 86.036 217.096 85.5957 216.93C85.1018 216.747 84.9783 216.328 85.2521 215.609C85.977 213.939 91.6577 206.938 92.5812 205.199C94.1867 202.434 95.486 199.647 96.3774 196.92C97.811 192.501 98.058 188.754 97.5425 185.989C97.0163 183.192 95.6525 181.533 93.7088 180.432C91.1369 179.213 88.5596 180.609 85.6441 180.824C83.8131 181.055 82.1164 181.227 80.817 181.307C79.566 181.307 78.7284 181.184 78.476 180.996C78.2505 180.829 78.2988 180.513 78.5888 180.11C79.2116 179.272 81.2036 177.978 82.0788 176.711C82.6372 175.917 82.7339 175.187 82.4976 175.009C81.8909 174.542 76.4034 179.874 76.0222 179.594C75.6303 179.304 77.1229 176.336 78.4975 173.882C79.1525 172.722 79.0076 172.03 78.6854 171.686C78.2505 171.273 77.3538 171.391 76.7095 172.132C76.484 172.395 76.2692 172.771 76.1296 173.205C73.5469 181.312 70.9643 183.567 70.3415 185.049C70.1643 185.608 70.5025 186.209 70.975 186.553C71.7429 187.127 71.9576 186.848 73.7564 184.437C74.347 183.653 76.4571 183.573 78.3418 183.653C80.2694 183.691 82.1218 183.707 82.1647 183.766C82.5298 183.992 82.5567 184.496 82.2668 184.974C82.0842 185.275 81.8211 185.527 81.4345 185.774C80.5271 186.365 77.3323 189.017 73.4772 192.362C69.6918 195.642 65.2782 199.508 62.513 203.352C60.7196 205.854 59.533 208.458 60.3116 209.043C61.031 209.628 65.4285 205.601 66.2447 206.09C66.6366 206.326 63.4311 215.668 63.2701 217.612C63.2056 218.154 63.1143 218.583 62.9694 218.83C62.4754 219.668 59.576 219.598 56.102 218.852C52.7247 217.987 48.9286 216.232 46.609 214.503C42.6035 211.351 40.2302 206.884 41.8894 205.183C43.2854 203.711 44.9714 202.976 46.5124 204.377C47.6292 205.387 47.1943 206.981 48.3487 208.581C48.6225 208.93 48.8749 209.215 49.1648 209.429C50.3353 210.31 51.6454 210.423 52.4616 209.37C52.8535 208.86 53.1757 207.062 51.1407 205.451C50.9313 205.263 49.4387 204.291 49.385 204.238C49.1219 204.001 49.1058 203.695 49.3366 203.438C49.5675 203.18 51.2964 203.422 51.5166 203.148C51.9247 202.665 50.8454 201.601 50.5447 201.322C48.6708 199.631 44.9606 198.514 42.1901 201.274C41.8411 201.618 40.6061 203.62 40.2195 204.017C39.9242 204.324 39.6128 204.324 39.3389 204.066C37.8033 202.611 36.8744 198.632 39.9618 195.846C41.39 194.504 41.2558 191.551 40.6652 190.901C40.3054 190.504 36.955 191.798 36.52 191.32C35.9294 190.649 35.5697 184.732 42.3995 179.766C48.9608 175.058 57.2671 173.383 61.8042 178.096C65.2889 181.661 64.7842 189.436 61.5626 193.57C60.6659 194.67 56.8161 198.606 53.2187 195.347C51.6777 193.94 52.6066 192.523 52.7515 192.362C53.0898 192.018 53.6643 192.056 54.459 192.399C55.1624 192.668 56.1986 192.002 56.9074 191.223C57.6591 190.397 59.1518 187.782 56.9396 185.79C55.2161 183.986 51.6884 184.496 49.6964 186.279C48.7138 187.175 47.7312 188.722 47.554 190.654C47.3446 192.603 47.9889 194.944 50.3998 197.033C55.055 201.419 60.7143 198.364 62.8835 195.508C69.5361 186.51 65.1225 178.241 64.5265 177.78C64.1345 177.361 64.1184 176.803 64.4674 176.459C64.6124 176.314 64.8809 176.196 65.1815 176.121C66.7011 175.772 68.779 174.344 70.1321 172.958C71.1791 171.89 74.8947 167.412 72.1563 164.336C70.5401 162.758 67.3454 162.779 64.4298 164.991C61.9707 166.859 61.4821 169.823 62.6257 170.908C63.3721 171.713 64.36 171.761 64.9292 171.246C65.0849 171.106 65.7131 170.542 65.1601 169.947C65.0634 169.839 64.3278 169.458 64.1936 169.313C63.705 168.835 63.9466 167.455 65.4339 166.263C66.9695 165.039 69.7025 164.894 70.4972 165.737C72.1348 167.52 70.7495 170.102 69.1602 171.67C66.5453 174.107 66.0084 174.263 57.7826 173.495C54.8885 173.039 51.5434 173.103 47.7849 174.311C50.0615 171.122 51.0548 168.024 51.7152 165.007C53.2885 157.083 53.7395 156.557 56.8859 154.806C58.8511 153.792 61.6163 153.33 62.9425 155.354C63.5332 156.304 63.2593 158.446 61.3264 159.713C59.7478 160.744 58.4054 160.535 58.0564 159.955C57.9598 159.799 57.7987 158.994 57.7235 158.871C57.2994 158.183 56.5745 158.602 56.3919 158.715C55.7261 159.101 55.4845 160.041 56.0483 160.97C56.8644 162.28 59.4632 162.956 62.1103 161.12C65.0312 159.08 65.9762 156.1 64.7842 154.205C63.6298 152.471 61.8579 152.116 60.1451 152.256C58.4054 152.412 56.7034 153.115 56.0161 153.464C54.2657 154.334 52.3435 155.832 51.4468 157.217C51.2642 157.48 51.0602 157.705 50.8776 157.802C50.4427 158.028 49.9541 157.818 49.7125 157.303C49.6212 157.11 48.2735 155.145 45.4976 153.711C42.8397 152.256 38.947 151.053 33.2823 153.078C31.634 153.679 29.6527 155.026 28.3801 157.008C27.0593 158.989 26.5116 161.614 27.9452 164.395C30.6191 170.183 35.5643 169.683 37.8839 168.325C40.1766 166.988 41.6961 163.842 40.7135 161.576C39.4141 158.876 36.3804 159.67 35.8059 159.923C34.92 160.325 34.0555 161.131 33.7334 161.899C33.379 162.613 32.987 163.085 32.5414 163.294C31.9078 163.606 31.0004 163.321 30.3614 161.99C28.4446 158.156 33.2716 155.467 34.7965 154.881C37.2664 153.91 39.9886 154.076 42.4961 154.881C45.0573 155.676 47.2319 157.195 48.3218 159.509C49.9273 162.446 49.8843 165.56 48.4346 168.83C47.0063 172.073 44.5687 175.197 40.939 177.78C38.4315 179.562 35.1885 180.765 32.3105 181.168C29.5077 181.533 27.1506 181.055 26.4311 179.884C25.8297 178.896 27.5157 177.629 27.8754 177.415C28.117 177.275 29.6688 176.733 29.6688 176.733C29.9695 176.556 30.007 176.207 29.8245 175.917C29.5077 175.396 26.7371 174.054 24.5303 175.272C23.3115 175.954 21.5933 176.76 20.6215 176.368C19.9234 176.18 17.2925 173.769 16.9703 173.157C16.8039 172.824 16.8951 172.524 17.271 172.341C17.7703 172.099 20.1865 171.471 20.6268 171.246C23.929 169.565 25.4431 166.435 23.8055 163.01C23.5907 162.661 23.0001 161.281 22.4256 161.512C22.098 161.641 21.6953 163.391 21.4161 163.515C21.0993 163.649 20.7933 163.552 20.6751 163.219C20.6483 163.155 20.2993 161.405 20.2026 161.142C19.3113 158.72 17.4482 158.495 16.8522 158.704C15.6011 159.15 15.3166 160.411 15.8213 161.786C15.9448 162.119 16.1434 162.441 16.3582 162.822C17.3784 164.454 19.0107 164.535 19.6818 165.877C20.5678 167.735 18.4791 169.517 16.6535 170.392C14.5058 171.45 10.8815 167.863 9.27068 162.994C6.92429 157.55 8.25051 146.409 10.1566 146.098C10.1566 146.098 12.4923 146.34 15.0427 146.603C17.5932 146.828 20.3369 146.968 21.196 146.946C21.8349 146.919 22.1571 147.043 22.2215 147.29C22.4309 148.09 18.4576 150.903 18.6563 151.655C18.8818 152.605 21.7275 152.283 24.6753 151.343C29.1265 149.926 34.3294 146.876 38.6731 144.289C43.0169 141.674 46.4909 139.473 47.3231 138.796C47.6775 138.512 47.9997 138.34 48.3379 138.249C48.8802 138.131 49.3635 138.302 49.4709 138.71C49.4816 138.753 49.3796 139.199 49.197 139.87C49.0145 140.541 48.746 141.438 48.4131 142.372C47.6614 144.256 47.1835 146.146 46.1956 146.49C45.7982 146.624 45.4278 146.64 45.1002 146.753C44.0371 147.107 43.7472 147.714 44.1284 148.75C44.6868 150.291 45.6318 150.033 46.1526 149.835C46.6788 149.631 47.2909 149.282 48.6655 148.761C49.2507 148.535 51.13 147.977 51.3931 148.283C52.2951 149.545 54.1798 150.275 55.1033 149.862C56.4188 149.26 59.3934 146.597 59.286 146.109C59.0551 145.427 52.7891 145.985 52.5421 145.325C52.4025 144.938 58.0833 141.771 57.8309 141.137C57.7074 140.863 57.0094 140.718 56.0859 141.008C54.5825 141.459 52.7623 142.93 51.7689 143.269C51.3018 143.414 50.985 143.371 50.883 143.107C50.6736 142.533 51.8441 139.655 53.3261 136.348C54.4053 133.664 56.7624 131.591 56.204 128.799C55.7852 124.477 50.7112 121.219 41.3363 121.1C38.4691 121.106 35.414 121.476 32.3051 122.153C30.3668 122.491 21.996 125.734 20.1812 125.9C19.4134 125.938 19.0536 125.691 19.0268 125.165C19.0053 124.703 19.6765 122.781 19.5852 120.902V120.896C19.6765 119.012 19.0053 117.09 19.0268 116.623C19.0536 116.097 19.4134 115.85 20.1812 115.887C21.996 116.059 30.3668 119.296 32.3051 119.635C35.4193 120.311 38.4691 120.682 41.3363 120.687C50.7112 120.569 55.7798 117.31 56.204 112.983C56.7624 110.196 54.4107 108.124 53.3261 105.439C51.8495 102.132 50.6736 99.2544 50.883 98.68C50.985 98.4169 51.3018 98.3686 51.7689 98.5189C52.7676 98.8518 54.5771 100.323 56.0859 100.774C57.0094 101.058 57.7074 100.913 57.8309 100.645C58.1101 99.9363 51.377 96.3928 51.5381 95.9472C51.7045 95.4962 55.0174 96.0009 57.7933 96.5592C59.1088 96.8277 59.7424 96.4894 59.8981 96.0492C60.086 95.4908 59.635 94.6533 58.7652 94.2721C58.4484 94.1379 58.0081 94.0466 57.5625 94.0466C49.3742 94.2077 46.1526 92.35 44.6331 92.248C44.0371 92.248 43.5592 92.7527 43.3552 93.3003C43.0223 94.1969 43.3552 94.3097 46.2009 95.2814C47.1889 95.6197 47.6668 97.5149 48.4185 99.3994C48.7514 100.334 49.0199 101.23 49.2024 101.901C49.3903 102.572 49.487 103.018 49.4762 103.056C49.3689 103.469 48.8856 103.646 48.3433 103.517C48.005 103.437 47.6829 103.265 47.3285 102.975C46.4963 102.304 43.0169 100.097 38.6785 97.4773C34.3294 94.8895 29.1265 91.84 24.6753 90.428C21.7329 89.4938 18.8872 89.177 18.6563 90.1219C18.4254 91.0185 23.5853 93.9446 23.3544 94.8627C23.2417 95.3083 13.3192 95.1472 11.4023 95.5982C10.8654 95.7056 10.4251 95.7485 10.1513 95.6895C8.24514 95.3888 6.91892 84.2484 9.27068 78.799C10.8815 73.9347 14.5058 70.343 16.6535 71.406C18.4845 72.2811 19.6872 73.6502 18.7851 75.5293C18.1086 76.8769 16.4763 76.9682 15.4454 78.6164C15.2306 79.003 15.0373 79.3251 14.9085 79.6687C14.3984 81.0485 14.683 82.321 15.9287 82.7719C16.5193 82.9813 18.3932 82.7505 19.2899 80.313C19.3865 80.0499 19.7355 78.2835 19.7624 78.2138C19.8805 77.8809 20.1919 77.7789 20.5087 77.9131C20.7933 78.0366 21.1852 79.7976 21.5128 79.9264C22.0873 80.1573 22.6833 78.7721 22.898 78.4124C23.988 76.1306 23.9773 72.2865 20.498 70.504C20.0577 70.2785 17.7703 69.7202 17.2656 69.4732C16.8898 69.2853 16.7985 68.99 16.9596 68.6518C17.824 66.7082 21.1638 64.5231 24.8686 66.6492C26.5814 67.5941 29.4003 66.5847 29.8567 65.8385C30.1359 65.3821 27.8969 62.6064 28.2352 62.048C28.4607 61.6829 29.8889 60.883 32.1118 60.8186C34.426 60.8078 37.4973 61.5756 40.9444 64.0292C44.2573 66.3807 46.7808 69.4464 48.3057 72.6409C49.8628 75.8837 50.1689 79.0567 48.4883 81.9559C47.3983 84.2752 44.9392 85.7463 42.0827 86.5355C39.2584 87.3194 36.2784 87.5019 33.83 86.5409C32.638 86.0845 27.3009 83.4699 29.4647 79.1211C30.3668 77.242 32.0205 77.6876 32.2085 77.7789C32.6488 77.9936 32.7722 78.5466 32.6702 79.4003C32.6219 80.1465 33.5669 80.9197 34.5226 81.3546C35.5428 81.8109 38.5067 82.4391 39.79 79.7546C40.7887 77.4675 39.2799 74.3052 36.9872 72.963C34.6676 71.61 29.7171 71.1268 27.011 76.9682C25.5666 79.7815 26.1089 82.423 27.419 84.4202C28.6916 86.412 30.6728 87.765 32.3427 88.3717C37.7711 90.3099 41.9109 89.2683 44.8264 87.9583C47.8923 86.6805 49.5836 84.8819 49.7608 84.4954C50.0024 83.9799 50.491 83.7706 50.926 84.0014C51.1085 84.0981 51.3126 84.3182 51.4951 84.5866C52.3918 85.9664 54.314 87.4697 56.0644 88.3395C56.7517 88.6831 58.4484 89.3918 60.1934 89.5475C61.9009 89.6763 63.6728 89.3273 64.8325 87.5986C66.0245 85.7033 64.6768 82.4498 61.7559 80.4096C59.1088 78.5735 56.5047 79.2607 55.6832 80.5814C55.1194 81.5156 55.3557 82.4605 56.0215 82.8417C56.204 82.9491 56.9289 83.3679 57.353 82.6753C57.4282 82.5572 57.5893 81.7518 57.6913 81.5854C58.0403 81.0056 59.388 80.7908 60.9666 81.8216C62.658 82.9437 63.603 85.4725 62.9908 86.455C61.6646 88.4791 58.894 88.0173 56.9342 86.9973C53.7932 85.247 53.3368 84.7208 51.7636 76.7964C51.1032 73.7737 50.1098 70.6758 47.8332 67.4921C51.5971 68.7001 54.9422 68.7645 57.8363 68.3082C66.0567 67.535 66.599 67.7015 69.2139 70.1336C70.8032 71.7013 72.1831 74.2837 70.5509 76.0662C69.7831 76.8876 67.6192 77.2527 65.8688 75.8568C64.3815 74.6542 64.1292 73.2797 64.6178 72.8073C64.7466 72.6677 65.4822 72.2865 65.5789 72.1845C66.1265 71.5885 65.4983 71.0302 65.348 70.8906C64.7788 70.3752 63.7909 70.4181 63.0499 71.2181C61.917 72.2919 62.411 75.2501 64.8701 77.1185C67.7803 79.3358 70.5885 79.0513 72.21 77.4728C74.943 74.3965 71.2274 69.9188 70.1858 68.845C68.8327 67.4652 66.7494 66.0371 65.2352 65.6881C64.9345 65.6076 64.6714 65.4895 64.5211 65.3445C64.1721 65.0063 64.1882 64.4426 64.5802 64.0292C64.9131 63.8144 70.5562 56.4805 63.5868 47.1225C61.4176 44.2716 55.7745 41.1953 51.1676 45.5441C48.7782 47.6111 48.15 49.9305 48.3702 51.874C48.5581 53.7961 49.5407 55.3423 50.5233 56.2389C52.5153 58.0214 56.0268 58.5475 57.7289 56.765C59.9572 54.7571 58.2766 52.121 57.8524 51.6592C57.192 50.9398 56.1611 50.36 55.3181 50.2794C54.518 50.1559 53.9489 49.9197 53.6106 49.5654C53.1274 49.0607 53.122 48.1211 54.2174 47.1279C57.3906 44.2555 61.1653 47.6863 62.2821 49.0607C65.5574 53.2108 65.6701 59.9112 62.1103 63.4439C59.9142 65.9888 56.6174 66.6223 53.2616 66.4237C49.8682 66.1606 45.9915 64.6842 42.4585 62.0588C37.5026 58.4938 34.0448 50.9559 35.9187 48.8406C36.6972 47.9815 38.4208 49.1949 38.7376 49.4741C38.947 49.6566 39.9349 50.9666 39.9349 50.9666C40.198 51.1921 40.5417 51.1277 40.7726 50.87C41.1806 50.4244 41.6478 47.4124 39.8114 45.689C38.7859 44.7387 37.4919 43.3536 37.5832 42.3227C37.6369 41.6892 38.8289 38.1672 39.398 37.7592C39.6772 37.5015 39.9886 37.5015 40.2839 37.8021C40.6705 38.2048 42.0021 40.2987 42.3511 40.6476C44.9714 43.2677 48.4507 43.7777 51.2589 41.2329C51.5595 40.959 52.628 39.9014 52.22 39.4182C51.9945 39.1497 50.2816 39.3806 50.0508 39.1229C49.8199 38.8598 49.836 38.5592 50.0937 38.3229C50.1474 38.2746 51.6293 37.3136 51.8334 37.1257C53.8522 35.5257 53.5247 33.7325 53.1328 33.2225C52.322 32.1702 51.0172 32.2722 49.8575 33.1527C49.5621 33.3674 49.3152 33.6412 49.0467 33.9956C47.9138 35.5848 48.3433 37.174 47.2372 38.178C45.7123 39.5578 43.3606 38.1135 41.9645 36.6425C40.3054 34.9405 42.6787 30.4682 46.6896 27.3167C49.0091 25.5933 52.8052 23.8377 56.1825 22.9733C59.6511 22.227 62.5559 22.1518 63.0499 22.9948C63.0499 22.9948 63.5385 25.2765 64.0755 27.7731C64.6446 30.2481 65.3534 32.8896 65.6379 33.7003C65.8634 34.2963 65.8473 34.6345 65.6218 34.7741C64.9023 35.1929 60.9935 32.2776 60.3921 32.7822C59.6135 33.3621 60.8002 35.9713 62.5935 38.4679C65.3587 42.3066 69.7723 46.1722 73.5577 49.458C77.4182 52.7974 80.613 55.4497 81.5204 56.0402C81.907 56.298 82.1701 56.5449 82.3527 56.8456C82.6426 57.3234 82.6158 57.8281 82.2506 58.0482C82.2077 58.1126 80.3553 58.1287 78.4277 58.161C76.543 58.2469 74.4383 58.161 73.8423 57.3825C73.5899 57.0442 73.4664 56.706 73.257 56.4214C72.5858 55.5248 71.9147 55.4121 71.0234 56.0832C69.7025 57.0603 70.2341 57.8764 70.5885 58.3113C70.9428 58.7462 71.469 59.2294 72.3872 60.3676C72.7845 60.8561 73.896 62.4668 73.6758 62.7997C72.8597 64.1848 72.7523 66.2143 73.402 66.9391C74.4007 68.0236 77.8746 70.0423 78.229 69.7041C78.6961 69.135 76.3605 63.4923 76.9028 63.0359C77.2357 62.7943 82.0359 67.2397 82.5782 66.821C82.8144 66.6384 82.7231 65.919 82.1594 65.1137C81.2842 63.852 79.2921 62.5581 78.6693 61.7098C78.3793 61.3125 78.331 61.0011 78.5565 60.8293C78.8089 60.6521 79.6411 60.5233 80.8976 60.5233C82.2023 60.6038 83.8937 60.7756 85.73 61.0065C88.6455 61.2212 91.2228 62.6118 93.7893 61.393C95.7384 60.2978 97.1022 58.6334 97.623 55.8416C98.1385 53.0713 97.8915 49.3345 96.4579 44.9105C95.5666 42.1885 94.2726 39.3913 92.6618 36.6317C91.7383 34.8868 86.0575 27.8858 85.3326 26.2161C85.0588 25.4967 85.1823 25.0779 85.6763 24.8953C86.1166 24.7343 88.1569 24.8041 89.9288 24.1598H89.9342C91.6846 23.4565 93.3598 22.4149 93.8001 22.2431C94.3102 22.1143 94.6592 22.3827 94.8578 23.129C95.2552 24.9061 94.7451 33.8345 95.0243 35.7781C95.3518 38.9672 95.9586 42.0489 96.8338 44.771C99.7869 53.4417 104.485 57.5596 108.673 56.4966C111.503 56.1745 112.759 53.4471 114.987 51.4498C117.704 49.0553 120.099 47.1386 120.711 47.101C120.996 47.0849 121.141 47.348 121.141 47.842C121.135 48.8943 120.287 51.1921 120.319 52.7276C120.335 53.7048 120.684 54.3115 120.99 54.29C121.758 54.2417 123.058 46.8487 123.53 46.8433C124.013 46.8702 124.561 50.1935 124.894 53.0122C125.044 54.349 125.57 54.8645 126.043 54.8806C126.639 54.902 127.299 54.2256 127.385 53.2538C127.417 52.9102 127.364 52.486 127.219 52.0619C124.507 44.2555 125.286 40.6369 124.91 39.1497C124.722 38.5806 124.099 38.2692 123.509 38.237C122.547 38.1833 122.547 38.5377 122.505 41.5389C122.483 42.4731 120.824 43.7401 119.256 44.9911C118.467 45.5763 117.688 46.1024 117.103 46.4729C116.518 46.8487 116.115 47.0742 116.083 47.0742C115.653 47.0903 115.331 46.6876 115.288 46.1293C115.261 45.7857 115.326 45.4313 115.492 45.0072C115.879 44.0032 116.915 40.0463 118.075 35.1231C119.208 30.2052 120.502 24.3477 120.48 19.6285C120.459 16.5521 119.884 13.7817 118.912 13.8247C117.989 13.8676 116.797 19.6714 115.852 19.7197C115.396 19.7412 112.496 10.2275 111.476 8.53634C111.213 8.05851 111.036 7.65047 111.009 7.37129C110.918 6.39952 113.307 4.82644 116.555 3.47348C118.177 2.81311 120.002 2.14199 121.79 1.75543C123.578 1.44941 125.323 1.29371 126.768 1.36351C129.307 1.48699 131.74 1.99167 133.469 2.76479C135.198 3.68823 136.229 4.83718 136.073 6.05054C135.751 8.07998 134.827 9.63696 132.765 9.3363C131.267 9.2504 130.666 7.74711 128.792 7.22633C128.362 7.13506 127.997 7.04916 127.632 7.02768C126.172 6.95252 125.044 7.60215 125.007 8.92827C124.991 9.55643 125.785 11.2745 128.379 11.4087C128.652 11.4141 130.446 11.2315 130.516 11.2315C130.865 11.253 131.069 11.4731 131.036 11.8221C130.999 12.1711 129.452 13.0677 129.431 13.4113C129.388 14.0448 130.886 14.1898 131.31 14.2113C133.828 14.3992 137.453 13.3898 138.065 9.48126C138.145 8.99806 137.968 6.63575 138.043 6.08276C138.108 5.66935 138.366 5.49218 138.725 5.55124C140.835 5.868 143.966 8.27327 143.096 12.3805C142.752 14.2381 144.562 16.6648 145.415 16.8796C145.942 17.0138 147.869 14.0448 148.508 14.2059C149.367 14.426 153.206 18.748 150.597 26.7959C149.4 30.6347 147.209 34.1835 144.648 36.6102C142.044 39.1497 139.209 40.0732 135.869 39.6974C133.324 39.3591 131.187 37.3136 129.538 34.9566C127.895 32.6641 126.811 29.7381 126.961 27.1556C127.036 25.808 127.847 20.1653 132.663 20.6163C134.73 20.9331 134.811 22.6404 134.79 22.8498C134.72 23.333 134.237 23.6175 133.394 23.7679C132.674 23.9397 132.223 25.0725 132.116 26.1194C131.998 27.2308 132.325 30.2535 135.262 30.7045C137.727 31.0803 140.298 28.4281 140.862 25.8295C141.421 23.2364 140.304 18.603 133.941 17.6366C127.595 16.9118 124.808 22.8015 124.744 26.2751C124.577 32.0091 126.848 35.7566 129.018 38.0276C131.203 40.3953 133.41 41.6463 133.834 41.6624C134.392 41.7483 134.747 42.1509 134.666 42.6395C134.634 42.8435 134.478 43.1012 134.29 43.3589C133.259 44.6206 132.432 46.897 132.148 48.8352C131.917 50.4137 131.589 56.0617 135.595 56.8724C137.743 57.4684 140.384 55.2886 141.437 51.8149C142.339 48.803 140.911 46.4353 139.413 46.0326C138.355 45.7588 137.544 46.2581 137.378 47.0098C137.335 47.2138 137.157 48.0352 137.941 48.2446C138.076 48.2822 138.886 48.207 139.069 48.2554C139.724 48.4272 140.341 49.6674 139.853 51.4874C139.305 53.4417 137.216 55.0738 136.105 54.7678C133.78 54.1558 133.308 51.5519 133.694 49.2808C134.344 45.9199 134.8 44.9159 141.786 41.1631C144.39 39.794 147.144 37.48 149.421 34.4573C149.432 38.4303 150.377 41.7107 151.687 44.3361C155.043 51.6753 154.925 52.5451 153.448 55.6966C152.439 57.6939 150.43 59.777 148.277 58.6925C147.284 58.1717 146.162 56.5073 146.989 54.3061C147.66 52.5451 148.889 51.8686 149.534 52.0941C149.706 52.1585 150.323 52.6525 150.447 52.7491C151.166 53.1088 151.499 52.3411 151.59 52.1532C151.891 51.4821 151.596 50.4351 150.57 50.0915C149.115 49.5815 146.554 50.7304 145.517 53.6994C144.299 57.1731 145.405 59.8253 147.456 60.7058C151.123 62.5312 154.275 57.5382 154.978 56.1906C155.886 54.4564 156.546 52.1478 156.439 50.5425C156.428 50.2257 156.455 49.9358 156.551 49.7479C156.766 49.3077 157.298 49.1734 157.803 49.415C158.291 49.3077 166.689 52.9531 173.658 43.112C175.693 40.1859 176.735 34.1083 171.322 30.828C165.679 27.8858 161.969 31.1501 160.922 33.5446C159.848 35.9767 160.38 39.5792 162.603 40.6369C165.341 41.8664 167.193 39.6974 167.553 39.0853C168.026 38.237 168.267 37.072 168.101 36.2291C167.988 35.4184 168.026 34.7956 168.267 34.366C168.6 33.7486 169.481 33.4694 170.743 34.2372C174.404 36.4653 172.273 41.147 171.328 42.6073C169.905 44.8139 167.521 46.4192 165.046 47.1923C162.581 47.901 159.972 47.8742 157.615 46.8541C156.1 46.1293 154.935 45.0662 154.049 43.7294C153.12 42.5107 152.46 41.0557 152.063 39.3699C151.279 36.0143 151.504 31.848 152.9 27.6711C154.769 21.8082 160.788 16.4071 163.44 17.395C164.53 17.7977 163.907 19.8003 163.746 20.1922C163.634 20.4499 162.694 21.8082 162.694 21.8082C162.56 22.1411 162.742 22.4042 163.054 22.5545C163.601 22.8176 166.576 22.3881 167.65 20.1063C168.23 18.8392 169.153 17.1856 170.157 16.9655C170.786 16.8044 174.442 17.0084 175.054 17.3145C175.392 17.4809 175.5 17.7655 175.301 18.1359C175.038 18.6298 173.438 20.5734 173.218 21.0083C171.543 24.2887 172.214 27.5959 175.414 29.6361C175.758 29.8455 177.084 30.5649 177.417 30.0334C177.605 29.7381 176.864 28.1435 177.046 27.8429C177.218 27.5422 177.513 27.4724 177.819 27.6496C177.873 27.6872 179.226 28.8361 179.468 28.9811C181.669 30.3233 183.334 29.373 183.672 28.8791C184.445 27.757 183.903 26.6187 182.657 25.851C182.34 25.6631 181.997 25.5289 181.589 25.3624C179.752 24.7289 178.378 25.6201 177.1 24.8416C175.339 23.7786 175.999 21.0781 176.976 19.2956C178.12 17.1373 182.931 18.2916 187.286 20.9761C192.204 24.2242 197.938 33.6627 196.419 35.2143C196.419 35.2143 194.405 36.3686 192.215 37.6357C190.045 38.9296 187.774 40.3846 187.076 40.9215C186.571 41.3295 186.238 41.4261 186.024 41.2651C185.353 40.7658 186.872 36.2237 186.249 35.7566C185.471 35.1768 183.361 37.0934 181.54 39.5685C178.743 43.3697 176.375 48.8245 174.426 53.4202C172.531 57.9945 171.011 61.8333 170.689 62.9285C170.565 63.3795 170.404 63.7124 170.173 63.9755C169.808 64.3996 169.325 64.5231 169.014 64.2278C169.062 64.0614 165.959 57.7529 167.038 56.0402C167.279 55.6966 167.564 55.4765 167.773 55.1866C168.423 54.2793 168.326 53.592 167.435 52.9156C166.055 52.0351 165.416 52.8297 165.11 53.2914C164.804 53.7585 164.52 54.4027 163.714 55.6322C163.371 56.1584 162.173 57.7261 161.765 57.6455C160.203 57.2858 158.291 57.7475 157.803 58.5905C157.078 59.8736 156.197 63.8412 156.616 64.0936C157.223 64.4962 162.098 60.1797 162.624 60.6682C162.957 60.9152 160.17 66.8854 160.723 67.2988C160.965 67.4813 161.62 67.1807 162.205 66.3968C163.129 65.1781 163.768 62.8587 164.385 62.0051C164.67 61.6078 164.949 61.4682 165.175 61.64C165.588 62.0963 166.71 64.6519 167.236 68.4907C167.763 71.5187 167.553 74.0851 169.363 76.3132C172.445 79.4003 178.184 79.2338 185.847 73.8059C188.166 72.1147 190.432 70.0101 192.569 67.6156C193.943 66.1874 198.905 58.569 200.269 57.3664C200.865 56.8832 201.294 56.8724 201.611 57.2966C201.89 57.667 202.416 59.6589 203.549 61.1729V61.1783C204.661 62.6977 206.486 63.75 206.674 64.1848C206.948 64.6358 206.787 65.0546 206.143 65.4734C204.639 66.3592 195.903 68.7108 194.062 69.6235C191.114 70.9335 188.402 72.4422 186.088 74.128C182.324 76.8662 179.983 79.7117 178.856 82.2082C177.583 84.8229 177.47 87.1261 178.668 89.0052C180.021 91.5017 182.668 92.0172 185.46 93.4077C188.617 95.2063 191.049 96.919 191.291 97.4827C191.393 97.7458 191.178 97.9659 190.711 98.1216C189.707 98.4384 187.275 98.3417 185.83 98.8464C184.907 99.1631 184.429 99.6893 184.542 99.9631C184.869 100.656 192.386 99.5712 192.483 100.038C192.596 100.505 189.594 102.052 187.006 103.233C185.777 103.791 185.433 104.441 185.557 104.892C185.702 105.466 186.545 105.885 187.495 105.67C187.828 105.59 188.22 105.413 188.585 105.149C195.227 100.178 198.894 99.7967 200.204 98.986C200.698 98.637 200.806 97.939 200.666 97.3699C200.435 96.4411 200.102 96.5431 197.224 97.429C196.327 97.7028 194.443 96.5753 192.88 95.4425C192.091 94.8734 191.372 94.2936 190.845 93.8533C190.314 93.4131 189.986 93.1017 189.976 93.0695C189.836 92.6668 190.121 92.2373 190.647 92.0172C190.969 91.8829 191.318 91.84 191.769 91.8668C192.827 91.9259 196.897 91.6843 201.912 91.2655C206.916 90.8199 212.87 90.2508 217.348 88.769C220.264 87.7972 222.734 86.3959 222.401 85.4832C222.073 84.6081 216.215 85.2631 215.888 84.3772C215.727 83.9477 223.931 78.2191 225.182 76.7373C225.531 76.3454 225.864 76.0555 226.122 75.9427C227.088 75.5239 229.279 77.3333 231.534 80.0231C233.811 82.6968 236.103 86.2671 236.705 89.1072C238.047 94.0466 237.644 98.986 235.121 99.4262C233.086 99.8021 231.448 99.3725 230.954 97.3485C230.584 95.8881 231.84 94.8573 231.765 92.903C231.722 92.4574 231.695 92.087 231.615 91.7272C231.244 90.3045 230.294 89.4293 229.021 89.8052C228.425 89.9823 227.019 91.2709 227.668 93.7943C227.743 94.0681 228.452 95.7163 228.468 95.7861C228.554 96.119 228.398 96.3821 228.06 96.4572C227.722 96.5324 226.406 95.3351 226.068 95.421C225.456 95.5714 225.757 97.0532 225.864 97.4505C226.61 99.8772 228.533 103.045 232.479 102.427C232.962 102.352 235.164 101.461 235.712 101.364C236.125 101.295 236.367 101.482 236.426 101.848C236.759 103.947 235.4 107.673 231.223 108.113C229.317 108.355 227.733 110.808 227.711 111.694C227.743 112.231 231.153 113.16 231.18 113.809C231.228 114.701 228.254 119.683 219.786 119.683C215.764 119.726 211.721 118.738 208.65 117.042C205.504 115.329 203.7 112.902 203.028 109.611C202.475 104.645 207.27 98.7229 212.253 97.284C213.606 96.9297 219.083 95.9955 220.264 100.704C220.581 102.766 218.975 103.372 218.777 103.41C218.288 103.496 217.875 103.12 217.477 102.363C217.107 101.724 215.893 101.654 214.868 101.864C213.772 102.089 210.986 103.329 211.426 106.272C211.802 108.736 215.104 110.379 217.746 110.116C220.393 109.853 224.468 107.361 223.496 101.005C222.122 94.766 215.802 93.8909 212.435 94.911C206.937 96.5217 204.043 99.8343 202.508 102.599C201.069 105.37 200.408 107.888 200.553 108.29C200.644 108.854 200.354 109.31 199.871 109.38C199.667 109.412 199.372 109.353 199.082 109.241C197.573 108.645 195.157 108.553 193.224 108.881C191.688 109.144 186.077 110.567 186.657 114.631C186.716 116.886 189.567 118.743 193.203 118.674C196.344 118.604 198.191 116.499 198.126 114.942C198.078 113.842 197.358 113.219 196.596 113.299C196.387 113.321 195.56 113.407 195.587 114.217C195.592 114.362 195.903 115.114 195.914 115.307C195.941 115.989 194.942 116.961 193.058 117.058C191.033 117.144 188.853 115.635 188.821 114.475C188.547 112.075 191.023 110.83 193.267 110.491C195.028 110.239 196.064 110.228 197.466 110.894C198.889 111.571 200.682 112.891 203.485 115.71C205.611 117.782 208.484 119.699 212.269 120.934C208.473 122.169 205.611 124.086 203.485 126.163C200.682 128.982 198.889 130.303 197.46 130.974C196.064 131.645 195.023 131.629 193.267 131.376C191.023 131.038 188.547 129.793 188.821 127.393C188.853 126.265 190.265 124.681 192.564 124.783C194.454 124.875 195.452 125.841 195.425 126.523C195.415 126.716 195.098 127.457 195.098 127.602C195.066 128.407 195.903 128.499 196.107 128.52C196.881 128.601 197.595 127.973 197.638 126.888C197.702 125.331 195.855 123.243 192.714 123.173C189.073 123.098 186.716 124.966 186.657 127.232C186.077 131.291 191.694 132.713 193.224 132.976C195.152 133.299 197.573 133.213 199.082 132.617C199.377 132.509 199.667 132.45 199.871 132.482C200.36 132.552 200.644 133.014 200.553 133.567C200.44 133.766 200.693 136.214 201.853 138.947C203.061 141.669 205.686 144.976 211.421 146.667C214.787 147.687 221.091 146.828 222.455 140.654C223.421 134.362 219.34 131.887 216.699 131.623C214.057 131.36 210.766 132.982 210.39 135.419C209.944 138.383 212.881 139.526 213.499 139.655C214.454 139.843 215.619 139.704 216.307 139.269C216.999 138.898 217.59 138.748 218.079 138.834C218.761 138.952 219.362 139.72 219.115 141.18C218.046 145.325 212.919 144.756 211.227 144.31C206.148 142.871 202.406 137.61 202.964 132.611C203.63 129.315 205.321 126.802 208.344 124.998C211.324 123.21 215.373 122.126 219.781 122.169C225.934 122.142 232.882 126.185 232.732 129.003C232.662 130.158 230.568 130.19 230.149 130.158C229.87 130.131 228.286 129.653 228.286 129.653C227.937 129.626 227.717 129.879 227.695 130.217C227.738 130.829 229.102 133.529 231.556 133.841C232.946 133.996 234.799 134.362 235.298 135.242C235.642 135.79 236.528 139.312 236.42 139.994C236.356 140.369 236.114 140.552 235.701 140.482C235.148 140.385 232.817 139.473 232.334 139.392C228.597 138.807 225.843 140.504 224.903 144.187C224.796 144.579 224.495 146.05 225.107 146.2C225.445 146.286 226.761 145.099 227.094 145.175C227.432 145.255 227.598 145.507 227.502 145.846C227.491 145.921 226.777 147.548 226.718 147.816C226.074 150.313 227.475 151.596 228.071 151.773C229.349 152.138 230.294 151.284 230.659 149.872C230.75 149.529 230.772 149.147 230.815 148.707C230.879 146.769 229.617 145.749 229.988 144.294C230.493 142.297 233.081 142.05 235.116 142.426C237.666 142.844 238.063 147.784 236.721 152.723ZM244.984 121.82C244.259 122.604 243.819 122.91 243.476 122.904C243.057 122.894 242.02 121.1 241.666 121.106C239.846 121.106 239.781 122.695 239.615 126.19C239.604 126.727 239.583 129.17 239.572 129.621C239.529 130.383 239.298 130.743 238.955 130.716C238.67 130.695 238.348 130.367 238.02 129.889C236.109 126.947 232.399 122.835 227.212 120.918C232.399 119.001 236.098 114.883 238.02 111.946C238.348 111.474 238.606 111.222 238.815 111.206C239.862 111.109 240.27 117.68 240.329 119.05C240.361 119.812 241.011 120.188 241.634 120.182C242.192 120.182 242.67 119.946 242.724 119.398C242.756 118.77 242.88 118.384 243.239 118.378C243.583 118.373 244.098 118.824 244.99 120.005C245.221 120.338 245.478 120.644 245.758 120.913H245.87C245.575 121.197 245.28 121.492 244.984 121.82Z" fill="url(#paint0_radial_195_40355)"/>
<path d="M242 121C242 187.826 187.826 242 121 242C54.1735 242 0 187.826 0 121C0 54.1735 54.1735 0 121 0C187.826 0 242 54.1735 242 121ZM6.05 121C6.05 184.485 57.5149 235.95 121 235.95C184.485 235.95 235.95 184.485 235.95 121C235.95 57.5149 184.485 6.05 121 6.05C57.5149 6.05 6.05 57.5149 6.05 121Z" fill="url(#paint1_linear_195_40355)"/>
<path d="M231 121C231 181.751 181.751 231 121 231C60.2487 231 11 181.751 11 121C11 60.2487 60.2487 11 121 11C181.751 11 231 60.2487 231 121ZM13.2 121C13.2 180.536 61.4637 228.8 121 228.8C180.536 228.8 228.8 180.536 228.8 121C228.8 61.4637 180.536 13.2 121 13.2C61.4637 13.2 13.2 61.4637 13.2 121Z" fill="url(#paint2_linear_195_40355)"/>
<path d="M149.332 76.2998L148.972 77.799C145.734 78.5985 143.056 79.5979 140.937 80.7972C138.818 81.9965 135.96 84.1752 132.362 87.3334C122.807 95.6885 114.492 102.105 107.416 106.582C109.455 109.101 111.194 111.919 112.633 115.037C114.073 118.155 116.571 125.331 120.129 136.565C123.327 146.599 126.585 153.375 129.903 156.893C133.221 160.411 136.599 162.17 140.037 162.17C143.355 162.17 145.614 160.411 146.813 156.893C147.533 154.814 148.153 153.535 148.672 153.055C149.392 152.415 150.191 152.096 151.071 152.096C152.03 152.096 152.85 152.415 153.53 153.055C154.209 153.735 154.549 154.534 154.549 155.454C154.549 157.852 153.13 160.171 150.291 162.41C147.453 164.648 143.855 165.768 139.498 165.768C135.74 165.768 132.162 164.808 128.764 162.889C125.406 160.97 122.328 157.952 119.529 153.835C116.731 149.717 113.873 143.341 110.954 134.706C108.236 126.55 106.137 120.974 104.658 117.976C103.179 114.937 101.12 111.739 98.4816 108.381L92.1253 132.667C90.8461 137.584 90.0466 141.102 89.7267 143.221C92.4452 144.38 94.8837 144.96 97.0425 144.96C97.5622 144.96 98.3017 144.92 99.2612 144.84L98.4816 147.838C97.6821 147.878 97.1824 147.898 96.9825 147.898C95.6633 147.898 93.7844 147.758 91.3458 147.478C88.7873 147.198 86.6885 147.059 85.0495 147.059C81.7314 147.059 76.4745 147.698 69.2787 148.977L69.6385 146.099C73.4762 145.34 76.1746 144.3 77.7337 142.981C79.2928 141.622 80.5321 139.503 81.4516 136.625C83.5703 130.148 86.3287 120.414 89.7267 107.422L97.0425 79.6579C89.1271 80.1376 82.8707 81.9365 78.2734 85.0547C74.7155 87.4133 72.9365 90.0518 72.9365 92.9701C72.9365 94.0095 73.4362 95.3287 74.4357 96.9278C75.3551 98.3669 75.8149 99.5263 75.8149 100.406C75.8149 101.485 75.4151 102.445 74.6156 103.284C73.816 104.084 72.8766 104.483 71.7972 104.483C70.5579 104.483 69.4386 103.864 68.4392 102.624C67.4797 101.385 67 99.7461 67 97.7073C67 92.1506 69.7584 87.1535 75.2752 82.7161C80.8319 78.2387 90.4663 76 104.178 76H108.076C105.877 81.7167 104.438 85.8542 103.759 88.4128L98.9613 106.582C101.92 105.463 105.358 103.564 109.275 100.885C113.233 98.1671 117.031 95.2887 120.669 92.2505C127.345 86.6538 131.143 83.2558 132.062 82.0565C132.342 81.6567 132.482 81.3169 132.482 81.0371C132.482 80.7172 132.062 80.4374 131.223 80.1976C130.423 79.9177 128.124 79.7378 124.327 79.6579L125.106 76.2998C130.223 76.7795 134.421 77.0194 137.699 77.0194C141.057 77.0194 144.935 76.7795 149.332 76.2998Z" fill="url(#paint3_linear_195_40355)"/>
<path d="M142.926 113.125L143.286 111.578C145.901 111.362 148.983 110.834 152.533 109.995C151.501 112.657 150.59 115.679 149.798 119.061L147.424 129.1C145.721 136.343 143.802 141.812 141.667 145.506C143.73 145.914 145.553 146.118 147.136 146.118C151.333 146.118 154.991 145.242 158.109 143.491C161.228 141.716 163.698 139.138 165.521 135.756C167.368 132.374 168.291 128.644 168.291 124.566C168.291 119.217 166.732 114.924 163.614 111.686C160.496 108.424 156.418 106.793 151.381 106.793C147.136 106.793 143.13 107.8 139.364 109.815C135.599 111.83 132.612 114.504 130.406 117.838C128.223 121.148 127.131 124.374 127.131 127.516C127.131 130.587 128.475 132.841 131.161 134.281C131.929 134.712 132.42 135.084 132.636 135.396C132.876 135.708 132.996 136.091 132.996 136.547C132.996 137.123 132.768 137.639 132.312 138.094C131.881 138.526 131.377 138.742 130.801 138.742C129.53 138.742 128.295 137.902 127.095 136.223C125.464 133.873 124.649 131.462 124.649 128.992C124.649 124.866 125.872 120.884 128.319 117.047C130.789 113.185 134.219 110.115 138.609 107.836C142.998 105.557 147.879 104.418 153.252 104.418C159.872 104.418 165.137 106.193 169.047 109.743C172.981 113.269 174.948 117.706 174.948 123.055C174.948 128.02 173.58 132.59 170.846 136.763C168.112 140.913 164.801 143.875 160.916 145.65C157.054 147.401 153.192 148.276 149.331 148.276C148.083 148.276 145.925 148.156 142.854 147.917C140.264 147.725 137.805 147.629 135.479 147.629C134.399 147.629 132.756 147.665 130.549 147.737L131.377 145.974C133.584 145.854 134.951 145.662 135.479 145.398C136.03 145.134 136.498 144.69 136.882 144.067C137.577 142.963 138.525 140.565 139.724 136.871L142.207 127.481L145.085 115.751C145.229 115.176 145.301 114.684 145.301 114.276C145.301 113.892 145.181 113.593 144.941 113.377C144.701 113.137 144.365 113.017 143.934 113.017C143.766 113.017 143.43 113.053 142.926 113.125Z" fill="url(#paint4_linear_195_40355)"/>
</g>
<defs>
<radialGradient id="paint0_radial_195_40355" cx="0" cy="0" r="1" gradientUnits="userSpaceOnUse" gradientTransform="translate(120.805 120.805) rotate(89.8966) scale(108.196)">
<stop stop-color="#4F4F4F"/>
<stop offset="1" stop-color="white"/>
</radialGradient>
<linearGradient id="paint1_linear_195_40355" x1="57.7775" y1="17.3938" x2="219.917" y2="191.483" gradientUnits="userSpaceOnUse">
<stop stop-color="#B7D3FD"/>
<stop offset="0.164" stop-color="#325AA9"/>
<stop offset="0.354" stop-color="#4684CD"/>
<stop offset="0.514" stop-color="#104D94"/>
<stop offset="0.679" stop-color="#454BD7"/>
<stop offset="0.819" stop-color="#002583"/>
<stop offset="1" stop-color="#343BD9"/>
</linearGradient>
<linearGradient id="paint2_linear_195_40355" x1="63.525" y1="26.8125" x2="210.925" y2="185.075" gradientUnits="userSpaceOnUse">
<stop stop-color="#B7D3FD"/>
<stop offset="0.164" stop-color="#325AA9"/>
<stop offset="0.354" stop-color="#4684CD"/>
<stop offset="0.514" stop-color="#104D94"/>
<stop offset="0.679" stop-color="#454BD7"/>
<stop offset="0.819" stop-color="#002583"/>
<stop offset="1" stop-color="#343BD9"/>
</linearGradient>
<linearGradient id="paint3_linear_195_40355" x1="87.9023" y1="82.452" x2="148.135" y2="145.525" gradientUnits="userSpaceOnUse">
<stop stop-color="#B7D3FD"/>
<stop offset="0.164" stop-color="#325AA9"/>
<stop offset="0.354" stop-color="#4684CD"/>
<stop offset="0.514" stop-color="#104D94"/>
<stop offset="0.679" stop-color="#454BD7"/>
<stop offset="0.819" stop-color="#002583"/>
<stop offset="1" stop-color="#343BD9"/>
</linearGradient>
<linearGradient id="paint4_linear_195_40355" x1="136.658" y1="107.57" x2="165.491" y2="143.074" gradientUnits="userSpaceOnUse">
<stop stop-color="#B7D3FD"/>
<stop offset="0.164" stop-color="#325AA9"/>
<stop offset="0.354" stop-color="#4684CD"/>
<stop offset="0.514" stop-color="#104D94"/>
<stop offset="0.679" stop-color="#454BD7"/>
<stop offset="0.819" stop-color="#002583"/>
<stop offset="1" stop-color="#343BD9"/>
</linearGradient>
<clipPath id="clip0_195_40355">
<rect width="242" height="242" fill="white"/>
</clipPath>
</defs>
</svg>
